<?xml version="1.0" encoding="UTF-8"?>
<svg version="1.1" xmlns="http://www.w3.org/2000/svg" width="541" height="161">
<path d="M0 0 C0.91974609 0.00193359 1.83949219 0.00386719 2.78710938 0.00585938 C4.22473633 0.02422852 4.22473633 0.02422852 5.69140625 0.04296875 C6.64595703 0.04361328 7.60050781 0.04425781 8.58398438 0.04492188 C17.01493452 0.09802093 17.01493452 0.09802093 20.25390625 1.23046875 C21.81548891 4.35363406 21.40118255 7.6765388 21.39916992 11.10498047 C21.40252853 11.91814728 21.40588715 12.73131409 21.40934753 13.56912231 C21.41887205 16.26614903 21.42080146 18.96311375 21.421875 21.66015625 C21.42508675 23.5310163 21.42845076 25.40187609 21.43196106 27.2727356 C21.43795623 31.19859398 21.43980058 35.12443033 21.43920898 39.05029297 C21.43910739 44.08320271 21.45275532 49.11597129 21.46998119 54.14884758 C21.48109531 58.01442108 21.48312837 61.8799604 21.48259926 65.74554825 C21.48378043 67.60111095 21.48820985 69.45667451 21.49593163 71.31222153 C21.50571879 73.9073044 21.50285843 76.50208025 21.49682617 79.09716797 C21.50244568 79.86510681 21.50806519 80.63304565 21.51385498 81.42425537 C21.48974412 85.50203047 21.13105694 87.47616736 19.25390625 91.23046875 C10.67390625 91.23046875 2.09390625 91.23046875 -6.74609375 91.23046875 C-7.40609375 89.25046875 -8.06609375 87.27046875 -8.74609375 85.23046875 C-9.85984375 85.84921875 -10.97359375 86.46796875 -12.12109375 87.10546875 C-23.09466783 92.54404149 -35.26894539 92.41635942 -46.88671875 89.2109375 C-58.11905865 85.35941111 -65.78634985 78.36957737 -71.74609375 68.23046875 C-77.4366259 55.31813399 -77.71854839 39.24585563 -73 26.02734375 C-68.75754133 16.56441413 -60.3264159 8.20660841 -50.828125 3.97265625 C-37.11789278 -0.91466856 -22.39237656 0.24935891 -9.36328125 6.42578125 C-8.82960938 6.69132812 -8.2959375 6.956875 -7.74609375 7.23046875 C-7.80796875 6.44671875 -7.86984375 5.66296875 -7.93359375 4.85546875 C-7.84078125 3.55609375 -7.84078125 3.55609375 -7.74609375 2.23046875 C-4.53406046 0.08911322 -3.69215518 -0.01809011 0 0 Z M-46.12109375 31.73046875 C-50.52432538 38.50467125 -50.71662739 45.33736773 -49.74609375 53.23046875 C-47.86391073 58.36795764 -45.10074344 62.71955649 -40.49609375 65.79296875 C-34.56395929 68.5369076 -28.23780935 68.94435803 -21.99609375 67.10546875 C-16.19766901 64.81473305 -12.23645455 61.69641665 -9.37109375 56.10546875 C-6.9247 49.88109985 -6.57424232 43.87565262 -8.62890625 37.484375 C-11.27219455 31.5938683 -14.16780799 28.43281798 -19.74609375 25.23046875 C-30.09161033 21.78196322 -38.81156847 24.03623161 -46.12109375 31.73046875 Z " fill="#4DC3B0" transform="translate(443.74609375,27.76953125)"/>
<path d="M0 0 C1.56194982 0.10858475 3.12379884 0.21862868 4.68554688 0.33007812 C6.28231555 0.39538796 7.87934205 0.45468624 9.4765625 0.5078125 C13.36515956 0.65014768 17.24123138 0.87369264 21.12304688 1.14257812 C19.77796054 5.38704044 18.40382549 8.47986001 15.68554688 12.01757812 C12.25449345 16.59024789 8.96694937 21.23070578 5.74804688 25.95507812 C2.70161445 30.41562588 -0.36517627 34.85559011 -3.52787781 39.2346344 C-7.55842357 44.82018868 -11.46440318 50.46991379 -15.26757812 56.21289062 C-21.73387354 65.94353555 -28.25484508 75.63679909 -34.7878418 85.32275391 C-36.70590664 88.1669764 -38.6225076 91.01218177 -40.5390625 93.85742188 C-41.78311476 95.70253354 -43.0272523 97.54758771 -44.27148438 99.39257812 C-44.83205032 100.2250708 -45.39261627 101.05756348 -45.97016907 101.9152832 C-57.01824744 118.28387244 -57.01824744 118.28387244 -58.87695312 120.14257812 C-60.8645234 120.2424087 -62.85562832 120.27338566 -64.84570312 120.27539062 C-66.05613281 120.27667969 -67.2665625 120.27796875 -68.51367188 120.27929688 C-69.78855469 120.27542969 -71.0634375 120.2715625 -72.37695312 120.26757812 C-73.65183594 120.27144531 -74.92671875 120.2753125 -76.24023438 120.27929688 C-77.45066406 120.27800781 -78.66109375 120.27671875 -79.90820312 120.27539062 C-81.02775391 120.2742627 -82.14730469 120.27313477 -83.30078125 120.27197266 C-85.87695312 120.14257812 -85.87695312 120.14257812 -86.87695312 119.14257812 C-86.98274304 116.44495351 -87.02373252 113.77279692 -87.0222168 111.07446289 C-87.02557541 110.22896881 -87.02893402 109.38347473 -87.03239441 108.51235962 C-87.04193395 105.70288647 -87.04384901 102.89347273 -87.04492188 100.08398438 C-87.04813235 98.1396431 -87.05149625 96.19530206 -87.05500793 94.2509613 C-87.06100671 90.1694991 -87.06284707 86.0880581 -87.06225586 82.0065918 C-87.06215419 76.76607304 -87.07580815 71.52568963 -87.09302807 66.28520298 C-87.10412414 62.26787181 -87.10617581 58.25057361 -87.10564613 54.23322868 C-87.10682981 52.3006538 -87.11127309 50.36807815 -87.1189785 48.43551826 C-87.12873037 45.73694392 -87.1259195 43.0386666 -87.11987305 40.34008789 C-87.12549255 39.53533524 -87.13111206 38.73058258 -87.13690186 37.90144348 C-87.10526855 32.37089355 -87.10526855 32.37089355 -84.87695312 30.14257812 C-82.47851562 29.8996582 -82.47851562 29.8996582 -79.50195312 29.91210938 C-78.43460938 29.91404297 -77.36726562 29.91597656 -76.26757812 29.91796875 C-75.14867187 29.93021484 -74.02976563 29.94246094 -72.87695312 29.95507812 C-71.19859375 29.95604492 -71.19859375 29.95604492 -69.48632812 29.95703125 C-61.15751631 30.00229653 -61.15751631 30.00229653 -58.87695312 31.14257812 C-57.70820502 34.64882243 -57.75181045 37.79036473 -57.77929688 41.43554688 C-57.78071182 42.14157547 -57.78212677 42.84760406 -57.78358459 43.57502747 C-57.78917548 45.82675438 -57.80172625 48.07838133 -57.81445312 50.33007812 C-57.81946931 51.85807148 -57.82403201 53.38606639 -57.828125 54.9140625 C-57.83914192 58.65693947 -57.85640025 62.39974186 -57.87695312 66.14257812 C-57.17707275 65.25094971 -56.47719238 64.35932129 -55.75610352 63.44067383 C-54.48187997 61.81734794 -53.20703758 60.19449173 -51.92553711 58.5769043 C-48.59963702 54.29385112 -45.71259915 49.79490292 -42.8293457 45.20532227 C-39.56688067 40.08745009 -36.14215982 35.0795827 -32.72558594 30.06396484 C-31.10527829 27.68522907 -29.4884214 25.30416861 -27.87458801 22.92103577 C-27.07044309 21.74290584 -26.25833314 20.57017233 -25.4382782 19.40306091 C-23.38997939 16.47353844 -21.53407425 13.56827339 -19.88793945 10.39282227 C-14.81282276 1.06210752 -10.08265764 -0.43837642 0 0 Z " fill="#4DC2B0" transform="translate(284.876953125,-1.142578125)"/>
<path d="M0 0 C33.66 0 67.32 0 102 0 C103 21 103 21 102 27 C98.86911129 28.56544436 95.57285977 28.00148591 92.1484375 27.87890625 C90.98738998 27.84348976 90.98738998 27.84348976 89.80288696 27.80735779 C87.3267397 27.73068562 84.85090241 27.64667684 82.375 27.5625 C80.69793192 27.50928285 79.02084863 27.45654243 77.34375 27.40429688 C73.22896977 27.27506572 69.11445275 27.13925354 65 27 C65.00222061 28.12308563 65.00444122 29.24617126 65.00672913 30.40328979 C65.02696941 40.96885758 65.04197643 51.53442145 65.05181217 62.1000042 C65.05703874 67.53233521 65.0641323 72.96465062 65.07543945 78.39697266 C65.08627634 83.63593831 65.09227855 88.87488891 65.09487724 94.1138649 C65.09673004 96.11621462 65.10034789 98.11856348 65.10573006 100.12090683 C65.11295109 102.91769972 65.11399049 105.71442982 65.11352539 108.51123047 C65.11712067 109.34560638 65.12071594 110.1799823 65.12442017 111.03964233 C65.11405216 116.77189568 65.11405216 116.77189568 64 119 C59.52084672 119.02886338 55.04171709 119.04675187 50.5625 119.0625 C49.28310547 119.07087891 48.00371094 119.07925781 46.68554688 119.08789062 C45.47060547 119.09111328 44.25566406 119.09433594 43.00390625 119.09765625 C41.87799072 119.10289307 40.7520752 119.10812988 39.59204102 119.11352539 C37 119 37 119 36 118 C35.8747903 115.20091293 35.81391277 112.42529671 35.79467773 109.62475586 C35.78477814 108.74678848 35.77487854 107.86882111 35.76467896 106.96424866 C35.73296573 104.04780825 35.70826789 101.13135152 35.68359375 98.21484375 C35.66303269 96.19844629 35.64203646 94.18205323 35.62062073 92.16566467 C35.56531241 86.84739734 35.5159419 81.52909055 35.46777344 76.21075439 C35.4176222 70.78825349 35.36190293 65.36581018 35.30664062 59.94335938 C35.19895196 49.2956202 35.09804518 38.64783235 35 28 C23.45 27.67 11.9 27.34 0 27 C0 18.09 0 9.18 0 0 Z " fill="#4DC3B1" transform="translate(0,0)"/>
<path d="M0 0 C5.98476474 6.374577 11.34592504 14.06097552 12 23 C9.44746034 25.55253966 2.61339436 24.33155926 -0.8125 24.375 C-1.91916016 24.41238281 -3.02582031 24.44976562 -4.16601562 24.48828125 C-12.3353287 24.57723929 -12.3353287 24.57723929 -15.76171875 21.6015625 C-17 19 -17 19 -17 17 C-17.66 17 -18.32 17 -19 17 C-19 16.34 -19 15.68 -19 15 C-25.83152439 13.45820642 -33.03731099 12.62446582 -39.5 15.625 C-44.60482608 20.47458478 -46.60613913 24.45170787 -47.03515625 31.41015625 C-46.94429588 38.10353713 -45.50437607 43.88692446 -41 49 C-35.55741152 52.26555309 -30.28012863 52.90870028 -24 52 C-19.07484406 50.25840493 -16.04228798 47.1690613 -13 43 C-10.57108818 41.78554409 -8.99280557 41.87075802 -6.28125 41.8671875 C-5.34925781 41.86589844 -4.41726562 41.86460938 -3.45703125 41.86328125 C-2.48121094 41.86714844 -1.50539063 41.87101562 -0.5 41.875 C0.47582031 41.87113281 1.45164062 41.86726563 2.45703125 41.86328125 C3.85501953 41.86521484 3.85501953 41.86521484 5.28125 41.8671875 C6.13783203 41.86831543 6.99441406 41.86944336 7.87695312 41.87060547 C10 42 10 42 12 43 C11.55309266 53.05541506 5.63907298 61.27844659 -1.5078125 67.9921875 C-12.3609493 76.73593721 -23.29279438 79.16339721 -37 78 C-49.65443356 75.54674785 -59.18734229 68.37113432 -66.34375 57.8125 C-72.87841046 46.71590677 -74.91398617 34.32931545 -72.31640625 21.66796875 C-68.53198513 9.43533782 -60.91522303 -0.27725688 -50 -7 C-32.54549028 -14.93615118 -14.60496864 -12.66096257 0 0 Z " fill="#4DC2AF" transform="translate(180,41)"/>
<path d="M0 0 C9.24 0 18.48 0 28 0 C28 9.57 28 19.14 28 29 C33.54973121 28.96042519 33.54973121 28.96042519 39.09936523 28.90991211 C41.06645974 28.90276909 43.03353621 28.94968107 45 29 C46 30 46 30 46.11352539 32.04125977 C46.10828857 32.91580811 46.10305176 33.79035645 46.09765625 34.69140625 C46.09443359 35.63564453 46.09121094 36.57988281 46.08789062 37.55273438 C46.07532227 39.04256836 46.07532227 39.04256836 46.0625 40.5625 C46.05798828 41.55958984 46.05347656 42.55667969 46.04882812 43.58398438 C46.03700023 46.05601487 46.01906415 48.52801472 46 51 C40.06 51 34.12 51 28 51 C28.0968071 56.51800458 28.19945447 62.03523476 28.31738281 67.55273438 C28.35571977 69.43059576 28.39056427 71.30853176 28.421875 73.18652344 C28.46742363 75.88243321 28.52543375 78.57782712 28.5859375 81.2734375 C28.59748871 82.11619232 28.60903992 82.95894714 28.62094116 83.82723999 C28.54193181 88.39020957 28.54193181 88.39020957 31 92 C33.56516083 92.46691692 36.04137866 92.83381875 38.625 93.125 C41.05875 93.41375 43.4925 93.7025 46 94 C46 102.25 46 110.5 46 119 C41.14267208 119.09217913 36.28841617 119.17170375 31.4309082 119.21972656 C29.78106363 119.23975797 28.1312893 119.26699142 26.48168945 119.30175781 C24.10089726 119.35065357 21.721049 119.3730528 19.33984375 119.390625 C18.61039047 119.41127014 17.88093719 119.43191528 17.12937927 119.45318604 C11.66471983 119.45554395 8.49518261 118.13503627 4 115 C-0.29349436 108.2735255 -0.14258126 101.59946569 -0.11352539 93.88549805 C-0.11367142 92.87039658 -0.11381744 91.8552951 -0.1139679 90.80943298 C-0.11327223 87.46017303 -0.10549597 84.11096896 -0.09765625 80.76171875 C-0.09579084 78.43715953 -0.09436752 76.11259992 -0.09336853 73.78804016 C-0.08955302 67.67409171 -0.07973095 61.56016708 -0.06866455 55.44622803 C-0.05842968 49.20569175 -0.05386646 42.96515163 -0.04882812 36.72460938 C-0.03810784 24.48306078 -0.02051883 12.2415361 0 0 Z " fill="#2F3A52" transform="translate(320,0)"/>
<path d="M0 0 C9.24 0 18.48 0 28 0 C28 39.27 28 78.54 28 119 C19.09 119 10.18 119 1 119 C0 118 0 118 -0.12304783 116.03410244 C-0.12212604 115.16485166 -0.12120424 114.29560087 -0.12025452 113.40000916 C-0.12162918 112.40576431 -0.12300385 111.41151947 -0.12442017 110.387146 C-0.12082489 109.28735413 -0.11722961 108.18756226 -0.11352539 107.05444336 C-0.11367142 105.90337601 -0.11381744 104.75230865 -0.1139679 103.56636047 C-0.11326818 99.74083609 -0.10547302 95.91535969 -0.09765625 92.08984375 C-0.09579228 89.44568407 -0.09436828 86.80152404 -0.09336853 84.15736389 C-0.09025549 77.89584583 -0.08204248 71.63434514 -0.07201904 65.37283474 C-0.06085705 58.24598463 -0.05534724 51.1191337 -0.05032361 43.99227703 C-0.03985984 29.32817443 -0.0215147 14.66409067 0 0 Z " fill="#4EC0AE" transform="translate(513,0)"/>
<path d="M0 0 C9.24 0 18.48 0 28 0 C28.02254748 15.36801715 28.04097944 30.73602687 28.05181217 46.10405636 C28.05697501 53.23921741 28.06401748 60.37436748 28.07543945 67.50952148 C28.08644675 74.38889737 28.09227617 81.26826181 28.09487724 88.14764595 C28.09673206 90.77881615 28.10035373 93.40998569 28.10573006 96.04115105 C28.11293635 99.7122625 28.11399112 103.38332603 28.11352539 107.05444336 C28.11712067 108.15423523 28.12071594 109.2540271 28.12442017 110.387146 C28.1230455 111.38139084 28.12167084 112.37563568 28.12025452 113.40000916 C28.12117631 114.26925994 28.1220981 115.13851072 28.12304783 116.03410244 C28 118 28 118 27 119 C25.08541718 119.09971786 23.16717683 119.13080589 21.25 119.1328125 C20.0846875 119.13410156 18.919375 119.13539062 17.71875 119.13671875 C16.4915625 119.13285156 15.264375 119.12898438 14 119.125 C12.15921875 119.13080078 12.15921875 119.13080078 10.28125 119.13671875 C9.1159375 119.13542969 7.950625 119.13414063 6.75 119.1328125 C5.67234375 119.13168457 4.5946875 119.13055664 3.484375 119.12939453 C1 119 1 119 0 118 C-0.09581822 116.46914161 -0.12188108 114.93386244 -0.12025452 113.40000916 C-0.12162918 112.40576431 -0.12300385 111.41151947 -0.12442017 110.387146 C-0.12082489 109.28735413 -0.11722961 108.18756226 -0.11352539 107.05444336 C-0.11367142 105.90337601 -0.11381744 104.75230865 -0.1139679 103.56636047 C-0.11326818 99.74083609 -0.10547302 95.91535969 -0.09765625 92.08984375 C-0.09579228 89.44568407 -0.09436828 86.80152404 -0.09336853 84.15736389 C-0.09025549 77.89584583 -0.08204248 71.63434514 -0.07201904 65.37283474 C-0.06085705 58.24598463 -0.05534724 51.1191337 -0.05032361 43.99227703 C-0.03985984 29.32817443 -0.0215147 14.66409067 0 0 Z " fill="#4DC3B1" transform="translate(474,0)"/>
<path d="M0 0 C1.13469773 2.93100941 1.12649726 5.80474708 1.12939453 8.92041016 C1.13254669 9.89466949 1.13569885 10.86892883 1.13894653 11.87271118 C1.1369223 12.91760712 1.13489807 13.96250305 1.1328125 15.0390625 C1.13424759 16.6548671 1.13424759 16.6548671 1.13571167 18.30331421 C1.13639168 20.57786111 1.13454988 22.85240996 1.13037109 25.12695312 C1.12500993 28.61853358 1.13032752 32.109986 1.13671875 35.6015625 C1.13605814 37.80989612 1.13477734 40.01822966 1.1328125 42.2265625 C1.13483673 43.2755069 1.13686096 44.32445129 1.13894653 45.40518188 C1.13579437 46.3731369 1.13264221 47.34109192 1.12939453 48.33837891 C1.12859894 49.1923526 1.12780334 50.04632629 1.12698364 50.92617798 C1 53 1 53 0 55 C-4.47915328 55.02886338 -8.95828291 55.04675187 -13.4375 55.0625 C-14.71689453 55.07087891 -15.99628906 55.07925781 -17.31445312 55.08789062 C-18.52939453 55.09111328 -19.74433594 55.09433594 -20.99609375 55.09765625 C-22.12200928 55.10289307 -23.2479248 55.10812988 -24.40795898 55.11352539 C-27 55 -27 55 -28 54 C-28.09868509 52.34808604 -28.12798837 50.69196783 -28.12939453 49.03710938 C-28.13254669 47.97931274 -28.13569885 46.92151611 -28.13894653 45.83166504 C-28.13591019 44.10514709 -28.13591019 44.10514709 -28.1328125 42.34375 C-28.13376923 41.17114624 -28.13472595 39.99854248 -28.13571167 38.79040527 C-28.1363937 36.30541938 -28.13453784 33.82043171 -28.13037109 31.33544922 C-28.12502319 27.51656113 -28.13031536 23.69779065 -28.13671875 19.87890625 C-28.13605797 17.47135391 -28.13477682 15.06380163 -28.1328125 12.65625 C-28.13483673 11.50523804 -28.13686096 10.35422607 -28.13894653 9.16833496 C-28.13579437 8.11053833 -28.13264221 7.0527417 -28.12939453 5.96289062 C-28.12859894 5.02658813 -28.12780334 4.09028564 -28.12698364 3.12561035 C-28 1 -28 1 -27 0 C-24.28646385 -0.24047749 -21.59405269 -0.42381922 -18.875 -0.5625 C-18.12734375 -0.60568359 -17.3796875 -0.64886719 -16.609375 -0.69335938 C-4.13395779 -1.37798593 -4.13395779 -1.37798593 0 0 Z " fill="#4EC1AF" transform="translate(100,64)"/>
<path d="M0 0 C0.9327686 6.30660877 1.1462195 12.43856661 1.1328125 18.80859375 C1.13424759 20.31958397 1.13424759 20.31958397 1.13571167 21.86109924 C1.13638853 23.97470157 1.13456891 26.08830603 1.13037109 28.2019043 C1.12497642 31.45170675 1.13035284 34.70137346 1.13671875 37.95117188 C1.13605865 40.00781281 1.1347789 42.06445365 1.1328125 44.12109375 C1.13483673 45.09702988 1.13686096 46.072966 1.13894653 47.07847595 C1.13579437 47.97353348 1.13264221 48.868591 1.12939453 49.79077148 C1.12859894 50.58160629 1.12780334 51.3724411 1.12698364 52.1872406 C1 54 1 54 0 55 C-1.98757028 55.09983058 -3.9786752 55.13080753 -5.96875 55.1328125 C-7.17917969 55.13410156 -8.38960938 55.13539062 -9.63671875 55.13671875 C-10.91160156 55.13285156 -12.18648438 55.12898438 -13.5 55.125 C-14.77488281 55.12886719 -16.04976563 55.13273437 -17.36328125 55.13671875 C-19.17892578 55.13478516 -19.17892578 55.13478516 -21.03125 55.1328125 C-22.15080078 55.13168457 -23.27035156 55.13055664 -24.42382812 55.12939453 C-27 55 -27 55 -28 54 C-28.09809142 52.59969248 -28.12798235 51.19450974 -28.12939453 49.79077148 C-28.13254669 48.89571396 -28.13569885 48.00065643 -28.13894653 47.07847595 C-28.1369223 46.10253983 -28.13489807 45.1266037 -28.1328125 44.12109375 C-28.13376923 43.12046402 -28.13472595 42.11983429 -28.13571167 41.08888245 C-28.13639405 38.96281878 -28.13453576 36.83675305 -28.13037109 34.71069336 C-28.12506268 31.47570006 -28.13029375 28.2408481 -28.13671875 25.00585938 C-28.13605721 22.94010386 -28.13477449 20.87434844 -28.1328125 18.80859375 C-28.13483673 17.84682724 -28.13686096 16.88506073 -28.13894653 15.89414978 C-28.12041972 10.50376329 -27.78887521 5.33372081 -27 0 C-17.88651147 -1.30192693 -9.13466832 -0.6888091 0 0 Z " fill="#303B53" transform="translate(313,64)"/>
<path d="M0 0 C7.57769498 6.90907483 12.48682009 16.24415978 17.875 24.875 C18.46796875 25.81085938 19.0609375 26.74671875 19.671875 27.7109375 C20.23132813 28.608125 20.79078125 29.5053125 21.3671875 30.4296875 C21.87362793 31.23647949 22.38006836 32.04327148 22.90185547 32.87451172 C24 35 24 35 24 38 C19.96292236 38.2675103 15.92544405 38.50036322 11.88452148 38.7019043 C10.51159157 38.77518546 9.13912361 38.85775617 7.76733398 38.94995117 C5.79038418 39.08117417 3.81111105 39.17575939 1.83203125 39.26953125 C0.64327393 39.33760986 -0.5454834 39.40568848 -1.77026367 39.47583008 C-6.71414789 38.74745829 -8.66595881 35.73919444 -11.58203125 31.9375 C-12.19111328 30.9784375 -12.19111328 30.9784375 -12.8125 30 C-13.23144531 29.360625 -13.65039062 28.72125 -14.08203125 28.0625 C-15.28425434 25.36133494 -15.47192975 23.94312556 -15 21 C-13.51455525 18.55983251 -12.03708986 16.38042107 -10.3125 14.125 C-9.87744141 13.53847656 -9.44238281 12.95195313 -8.99414062 12.34765625 C-8.11701016 11.16515444 -7.23566826 9.98576463 -6.35009766 8.80957031 C-4.18481929 5.90739251 -2.09562125 2.95274922 0 0 Z " fill="#303B52" transform="translate(257,81)"/>
<path d="M0 0 C0.66 0 1.32 0 2 0 C2.19825948 3.37445728 2.38167324 6.74956722 2.5625 10.125 C2.64661133 11.55199219 2.64661133 11.55199219 2.73242188 13.0078125 C3.22763149 22.51583708 3.22763149 22.51583708 2 27 C-1.13088871 28.56544436 -4.42714023 28.00148591 -7.8515625 27.87890625 C-9.01261002 27.84348976 -9.01261002 27.84348976 -10.19711304 27.80735779 C-12.6732603 27.73068562 -15.14909759 27.64667684 -17.625 27.5625 C-19.30206808 27.50928285 -20.97915137 27.45654243 -22.65625 27.40429688 C-26.77103023 27.27506572 -30.88554725 27.13925354 -35 27 C-34.99777939 28.12308563 -34.99555878 29.24617126 -34.99327087 30.40328979 C-34.97303059 40.96885758 -34.95802357 51.53442145 -34.94818783 62.1000042 C-34.94296126 67.53233521 -34.9358677 72.96465062 -34.92456055 78.39697266 C-34.91372366 83.63593831 -34.90772145 88.87488891 -34.90512276 94.1138649 C-34.90326996 96.11621462 -34.89965211 98.11856348 -34.89426994 100.12090683 C-34.88704891 102.91769972 -34.88600951 105.71442982 -34.88647461 108.51123047 C-34.88287933 109.34560638 -34.87928406 110.1799823 -34.87557983 111.03964233 C-34.88594784 116.77189568 -34.88594784 116.77189568 -36 119 C-40.47915328 119.02886338 -44.95828291 119.04675187 -49.4375 119.0625 C-50.71689453 119.07087891 -51.99628906 119.07925781 -53.31445312 119.08789062 C-54.52939453 119.09111328 -55.74433594 119.09433594 -56.99609375 119.09765625 C-58.12200928 119.10289307 -59.2479248 119.10812988 -60.40795898 119.11352539 C-63 119 -63 119 -64 118 C-64.1252097 115.20091293 -64.18608723 112.42529671 -64.20532227 109.62475586 C-64.21522186 108.74678848 -64.22512146 107.86882111 -64.23532104 106.96424866 C-64.26703427 104.04780825 -64.29173211 101.13135152 -64.31640625 98.21484375 C-64.33696731 96.19844629 -64.35796354 94.18205323 -64.37937927 92.16566467 C-64.43468759 86.84739734 -64.4840581 81.52909055 -64.53222656 76.21075439 C-64.5823778 70.78825349 -64.63809707 65.36581018 -64.69335938 59.94335938 C-64.80104804 49.2956202 -64.90195482 38.64783235 -65 28 C-76.55 27.67 -88.1 27.34 -100 27 C-100 26.34 -100 25.68 -100 25 C-87.46 25 -74.92 25 -62 25 C-60.93847026 29.24611896 -60.866973 33.10574645 -60.88647461 37.44042969 C-60.88632858 38.28957443 -60.88618256 39.13871918 -60.8860321 40.01359558 C-60.88672799 42.8163815 -60.89450524 45.61910071 -60.90234375 48.421875 C-60.90420908 50.36671919 -60.90563244 52.31156386 -60.90663147 54.25640869 C-60.91044758 59.37247009 -60.92027016 64.48850305 -60.93133545 69.60455322 C-60.94156902 74.82620865 -60.94613326 80.04786868 -60.95117188 85.26953125 C-60.96189322 95.51303533 -60.97948272 105.75651085 -61 116 C-53.08 116.33 -45.16 116.66 -37 117 C-37.00523682 114.31963623 -37.01047363 111.63927246 -37.01586914 108.87768555 C-37.03242115 100.03278085 -37.0434777 91.18787547 -37.05181217 82.3429594 C-37.0570361 76.97903819 -37.0641249 71.61513281 -37.07543945 66.2512207 C-37.08628568 61.07708899 -37.09228054 55.90297254 -37.09487724 50.72883034 C-37.09672835 48.75242688 -37.10034297 46.77602428 -37.10573006 44.7996273 C-37.11296346 42.0365657 -37.11398996 39.27356756 -37.11352539 36.51049805 C-37.11712067 35.68906815 -37.12071594 34.86763824 -37.12442017 34.02131653 C-37.11845265 30.75255825 -37.04120266 28.12360797 -36 25 C-24.12 25 -12.24 25 0 25 C-0.495 20.545 -0.495 20.545 -1 16 C-0.70764733 13.66117862 -0.37400786 11.32716 0 9 C0.08674195 5.99776457 0.0612772 3.00258296 0 0 Z " fill="#55A093" transform="translate(100,0)"/>
<path d="M0 0 C3.18889675 3.18889675 4.41993947 5.9300921 4.5 10.4375 C4.36849734 15.42638234 3.14620788 18.14972647 0.125 22.125 C-4.21124363 25.11219005 -7.6674678 25.68294988 -12.875 25.125 C-18.21239473 23.13655883 -21.32833824 20.21832352 -23.875 15.125 C-24.27899154 9.87310993 -23.76490343 6.55618526 -20.875 2.125 C-14.35899198 -4.64653775 -7.85310579 -5.12159073 0 0 Z " fill="#4DC2B0" transform="translate(95.875,34.875)"/>
<path d="M0 0 C5.37166645 2.68583322 7.7846006 5.78787301 9.875 11.3125 C10.12789543 16.74975176 7.96446868 20.8667493 4.5 24.9375 C0.44790616 28.28047742 -2.87267119 28.34761551 -8 28 C-12.64646027 26.26896578 -15.43863658 24.26893904 -18 20 C-19.46489901 13.94508409 -19.11420432 10.58409051 -16 5 C-11.53778088 -0.29888521 -6.6174283 -0.81445271 0 0 Z " fill="#313A51" transform="translate(304,32)"/>
<path d="M0 0 C1.9375 0.0625 1.9375 0.0625 4 1 C5.25 4.0625 5.25 4.0625 6 7 C6.99 6.67 7.98 6.34 9 6 C11.68092691 8.68092691 11.38670257 10.39167363 11.625 14.125 C11.69976562 15.22070312 11.77453125 16.31640625 11.8515625 17.4453125 C11.90054688 18.28835937 11.94953125 19.13140625 12 20 C15.58327753 21.00217064 15.58327753 21.00217064 19 20 C19.46954261 16.95418731 19.46954261 16.95418731 19.625 13.4375 C19.69976562 12.23996094 19.77453125 11.04242188 19.8515625 9.80859375 C19.90054688 8.88175781 19.94953125 7.95492187 20 7 C23 6 23 6 27 6 C27 4.35 27 2.7 27 1 C28.65 0.67 30.3 0.34 32 0 C32.495 0.99 32.495 0.99 33 2 C33.99 1.34 34.98 0.68 36 0 C38.6875 0.375 38.6875 0.375 41 1 C40.95875 1.94875 40.9175 2.8975 40.875 3.875 C40.65026182 7.10244856 40.65026182 7.10244856 43 9 C42.01 10.98 41.02 12.96 40 15 C40.66 15 41.32 15 42 15 C41.54177532 18.46941546 41.10868317 21.67395049 40 25 C39.01 25 38.02 25 37 25 C36.505 17.575 36.505 17.575 36 10 C34.68 10.33 33.36 10.66 32 11 C32 15.62 32 20.24 32 25 C31.01 25 30.02 25 29 25 C28.66307215 23.39658445 28.33058907 21.79223445 28 20.1875 C27.814375 19.29417969 27.62875 18.40085938 27.4375 17.48046875 C27 15 27 15 27 12 C26.34 11.34 25.68 10.68 25 10 C24.67 14.95 24.34 19.9 24 25 C21.9375 25.04125 19.875 25.0825 17.75 25.125 C16.58984375 25.14820313 15.4296875 25.17140625 14.234375 25.1953125 C11.17213954 25.0103949 9.55797249 24.60823023 7 23 C7 22.34 7 21.68 7 21 C6.34 21 5.68 21 5 21 C4.34 22.32 3.68 23.64 3 25 C2.01 25 1.02 25 0 25 C-0.19585353 21.02119772 -0.3802867 17.04194844 -0.5625 13.0625 C-0.61857422 11.92619141 -0.67464844 10.78988281 -0.73242188 9.61914062 C-0.78076172 8.53955078 -0.82910156 7.45996094 -0.87890625 6.34765625 C-0.9260376 5.34742432 -0.97316895 4.34719238 -1.02172852 3.31665039 C-1 1 -1 1 0 0 Z M36 1 C37 3 37 3 37 3 Z M32 4 C32 4.66 32 5.32 32 6 C32.66 5.67 33.32 5.34 34 5 C33.34 4.67 32.68 4.34 32 4 Z M35 6 C35.99 7.485 35.99 7.485 37 9 C37 8.01 37 7.02 37 6 C36.34 6 35.68 6 35 6 Z M4 9 C4 9.99 4 10.98 4 12 C4.66 12 5.32 12 6 12 C6.33 12.66 6.66 13.32 7 14 C7 12.02 7 10.04 7 8 C5.7763932 7.9254644 5.7763932 7.9254644 4 9 Z " fill="#302F40" transform="translate(171,136)"/>
<path d="M0 0 C0.66 0 1.32 0 2 0 C2.00331015 0.5856819 2.00662029 1.17136379 2.01003075 1.77479362 C2.09117994 16.01249386 2.1832456 30.25008828 2.28752708 44.48763847 C2.33769198 51.37275842 2.38413432 58.25786622 2.421875 65.14306641 C2.45827957 71.78262106 2.50497612 78.422051 2.55806351 85.06149673 C2.57665412 87.59970951 2.59174464 90.13795033 2.60334396 92.67620468 C2.6201267 96.22030883 2.64914221 99.76411086 2.68115234 103.30810547 C2.68331253 104.36689911 2.68547272 105.42569275 2.68769836 106.51657104 C2.70444359 107.95951538 2.70444359 107.95951538 2.7215271 109.43161011 C2.72705786 110.27044172 2.73258862 111.10927334 2.73828697 111.97352409 C2.81957308 114.22671588 2.81957308 114.22671588 5 116 C11.93 116.33 18.86 116.66 26 117 C26 78.39 26 39.78 26 0 C26.66 0 27.32 0 28 0 C28.02332953 15.36801449 28.04097944 30.73602816 28.05181217 46.10405636 C28.05697501 53.23921741 28.06401748 60.37436748 28.07543945 67.50952148 C28.08644675 74.38889737 28.09227617 81.26826181 28.09487724 88.14764595 C28.09673206 90.77881615 28.10035373 93.40998569 28.10573006 96.04115105 C28.11293635 99.7122625 28.11399112 103.38332603 28.11352539 107.05444336 C28.11712067 108.15423523 28.12071594 109.2540271 28.12442017 110.387146 C28.1230455 111.38139084 28.12167084 112.37563568 28.12025452 113.40000916 C28.12117631 114.26925994 28.1220981 115.13851072 28.12304783 116.03410244 C28 118 28 118 27 119 C25.08541718 119.09971786 23.16717683 119.13080589 21.25 119.1328125 C20.0846875 119.13410156 18.919375 119.13539062 17.71875 119.13671875 C16.4915625 119.13285156 15.264375 119.12898438 14 119.125 C12.15921875 119.13080078 12.15921875 119.13080078 10.28125 119.13671875 C9.1159375 119.13542969 7.950625 119.13414063 6.75 119.1328125 C5.67234375 119.13168457 4.5946875 119.13055664 3.484375 119.12939453 C1 119 1 119 0 118 C-0.09581822 116.46914161 -0.12188108 114.93386244 -0.12025452 113.40000916 C-0.12162918 112.40576431 -0.12300385 111.41151947 -0.12442017 110.387146 C-0.12082489 109.28735413 -0.11722961 108.18756226 -0.11352539 107.05444336 C-0.11367142 105.90337601 -0.11381744 104.75230865 -0.1139679 103.56636047 C-0.11326818 99.74083609 -0.10547302 95.91535969 -0.09765625 92.08984375 C-0.09579228 89.44568407 -0.09436828 86.80152404 -0.09336853 84.15736389 C-0.09025549 77.89584583 -0.08204248 71.63434514 -0.07201904 65.37283474 C-0.06085705 58.24598463 -0.05534724 51.1191337 -0.05032361 43.99227703 C-0.03985984 29.3281757 -0.02226093 14.66408809 0 0 Z " fill="#53A496" transform="translate(474,0)"/>
<path d="M0 0 C1.32 0 2.64 0 4 0 C5.625 2.25 5.625 2.25 7 5 C7.5878125 6.1446875 7.5878125 6.1446875 8.1875 7.3125 C8.455625 7.869375 8.72375 8.42625 9 9 C8.34 9.99 7.68 10.98 7 12 C6.01 12 5.02 12 4 12 C4.17402344 12.56203125 4.34804687 13.1240625 4.52734375 13.703125 C5.05053346 16.24556755 4.90204838 18.18452337 4.5625 20.75 C4.46066406 21.54921875 4.35882813 22.3484375 4.25390625 23.171875 C4.17011719 23.77515625 4.08632812 24.3784375 4 25 C2.68 25 1.36 25 0 25 C0 20.38 0 15.76 0 11 C-2.31 11.66 -4.62 12.32 -7 13 C-7.33 16.96 -7.66 20.92 -8 25 C-9.65 24.67 -11.3 24.34 -13 24 C-13 23.01 -13 22.02 -13 21 C-13.66 20.67 -14.32 20.34 -15 20 C-15.33 21.65 -15.66 23.3 -16 25 C-18.24973447 25.054138 -20.49984383 25.09285491 -22.75 25.125 C-24.00296875 25.14820313 -25.2559375 25.17140625 -26.546875 25.1953125 C-29.72820492 25.01537302 -31.36521896 24.68998582 -34 23 C-34 22.34 -34 21.68 -34 21 C-34.66 20.67 -35.32 20.34 -36 20 C-35.505 15.545 -35.505 15.545 -35 11 C-34.34 11 -33.68 11 -33 11 C-32.67 10.01 -32.34 9.02 -32 8 C-27.31249363 4.87499575 -22.37004297 5.61305421 -16.9375 6.5 C-16.298125 6.665 -15.65875 6.83 -15 7 C-15 9.31 -15 11.62 -15 14 C-14.34 13.67 -13.68 13.34 -13 13 C-13.20625 12.21625 -13.4125 11.4325 -13.625 10.625 C-13.74875 9.75875 -13.8725 8.8925 -14 8 C-13.34 7.34 -12.68 6.68 -12 6 C-10.66400079 6.32248257 -9.33106622 6.65772583 -8 7 C-6.32345271 6.72057545 -4.65391846 6.39171753 -3 6 C-2.34 6 -1.68 6 -1 6 C-1.020625 5.195625 -1.04125 4.39125 -1.0625 3.5625 C-1 1 -1 1 0 0 Z M-29.75 11.125 C-31.57455806 13.8618371 -31.40186757 15.78505943 -31 19 C-30 21 -30 21 -28 22 C-25 22.66666667 -25 22.66666667 -22 22 C-19.65658165 19.35420508 -18.9801879 17.8519201 -19.0625 14.3125 C-19.80328385 11.89827539 -19.80328385 11.89827539 -21.8125 10.6875 C-24.7571357 9.76204307 -27.07029168 9.40233037 -29.75 11.125 Z M-13 14 C-12 16 -12 16 -12 16 Z " fill="#2F2E3F" transform="translate(118,136)"/>
<path d="M0 0 C0.66 0 1.32 0 2 0 C3.08371386 17.2160225 3.12310306 34.40553788 3.06866455 51.6463623 C3.05824441 55.30785528 3.05382784 58.9693557 3.04882812 62.63085938 C3.03825602 69.75392374 3.02129914 76.87695893 3 84 C4.07540039 83.67475342 5.15080078 83.34950684 6.25878906 83.0144043 C10.25675124 81.93038362 13.61714424 81.76685601 17.75 81.8125 C19.04421875 81.81894531 20.3384375 81.82539062 21.671875 81.83203125 C25 82 25 82 28 83 C31.22639619 79.29561919 33.54464697 75.39120025 35.8515625 71.0859375 C37 69 37 69 39 66 C39.66 66 40.32 66 41 66 C41.20625 65.34 41.4125 64.68 41.625 64 C42.84379851 61.34080325 44.02358182 59.57968937 45.8125 57.3125 C48.18068977 54.27753835 49.92470252 51.29541109 51.5625 47.8125 C53.50803269 43.72812848 55.65274271 41.08977596 59 38 C60.43883113 36.05197214 61.71073784 34.05326937 63 32 C63.66 32.33 64.32 32.66 65 33 C60.99940053 38.94161283 56.99736972 44.88225969 52.99438477 50.82226562 C51.63533798 52.83930075 50.27660814 54.85654947 48.91821289 56.87402344 C46.95544215 59.78898667 44.99149855 62.70315674 43.02734375 65.6171875 C42.42913315 66.50614716 41.83092255 67.39510681 41.21458435 68.31100464 C29.875893 85.124107 29.875893 85.124107 28 87 C26.01242972 87.09983058 24.0213248 87.13080753 22.03125 87.1328125 C20.82082031 87.13410156 19.61039063 87.13539062 18.36328125 87.13671875 C17.08839844 87.13285156 15.81351563 87.12898438 14.5 87.125 C13.22511719 87.12886719 11.95023438 87.13273437 10.63671875 87.13671875 C9.42628906 87.13542969 8.21585938 87.13414063 6.96875 87.1328125 C5.84919922 87.13168457 4.72964844 87.13055664 3.57617188 87.12939453 C1 87 1 87 0 86 C-0.09512944 83.32212027 -0.12555279 80.67011131 -0.11352539 77.99194336 C-0.11367142 77.15299026 -0.11381744 76.31403717 -0.1139679 75.44966125 C-0.1132685 72.66302956 -0.10547485 69.87646384 -0.09765625 67.08984375 C-0.09579217 65.16313209 -0.09436822 63.23641995 -0.09336853 61.30970764 C-0.08954259 56.22812603 -0.07971166 51.1465728 -0.06866455 46.06500244 C-0.05845206 40.88383366 -0.05387126 35.70266031 -0.04882812 30.52148438 C-0.03808946 20.34764375 -0.02101213 10.17382423 0 0 Z " fill="#53AC9F" transform="translate(198,32)"/>
<path d="M0 0 C2.29013653 3.4352048 2.17842973 4.985331 2 9 C2.33 8.34 2.66 7.68 3 7 C3.66 7 4.32 7 5 7 C5.12375 6.38125 5.2475 5.7625 5.375 5.125 C6 3 6 3 8 1 C12.53162413 0.01814811 14.93059346 -0.38337216 19.3125 1.1875 C21.97787744 2.98508013 23.50157957 4.1696503 25 7 C25.55862852 11.58075384 24.05180235 13.46612157 21.5 17.1875 C18.10758212 19.64700296 15.5291269 19.55199268 11.41796875 19.40625 C8.10105156 18.84896504 6.27219089 17.42367028 4 15 C3.505 15.66 3.01 16.32 2.5 17 C-0.11062646 19.08850117 -0.86678389 19.3800558 -4.0625 19.5625 C-8 19 -8 19 -10 16.5 C-10.33 15.675 -10.66 14.85 -11 14 C-9.68 13.34 -8.36 12.68 -7 12 C-7.66 11.34 -8.32 10.68 -9 10 C-9.55021834 3.94759825 -9.55021834 3.94759825 -7.875 1.0625 C-5.12198451 -0.49754211 -3.0996593 -0.39570119 0 0 Z M-5 4 C-5 4.99 -5 5.98 -5 7 C-3.35 7.33 -1.7 7.66 0 8 C-0.33 7.01 -0.66 6.02 -1 5 C-3.01508358 4.26676204 -3.01508358 4.26676204 -5 4 Z M9.6875 5.6875 C7.736539 7.86811423 7.736539 7.86811423 8.0625 10.5625 C9.02923961 13.076023 9.94384695 14.30143878 12 16 C14.31 15.34 16.62 14.68 19 14 C19.85650653 11.19954954 19.85650653 11.19954954 20 8 C18.43695474 5.52018248 18.43695474 5.52018248 16 4 C12.06140303 3.60702062 12.06140303 3.60702062 9.6875 5.6875 Z M-5 13 C-5 13.99 -5 14.98 -5 16 C-3.68 15.67 -2.36 15.34 -1 15 C-2.32 14.34 -3.64 13.68 -5 13 Z " fill="#302F3D" transform="translate(145,142)"/>
<path d="M0 0 C3.0625 2.5625 3.0625 2.5625 5 5 C5 4.34 5 3.68 5 3 C5.63474075 1.65117592 6.29848848 0.3153341 7 -1 C7.639375 -0.814375 8.27875 -0.62875 8.9375 -0.4375 C9.9584375 -0.2209375 9.9584375 -0.2209375 11 0 C11.33 -0.33 11.66 -0.66 12 -1 C15.20702101 -1.32525568 17.972598 -1.13065275 21 0 C23.83104299 3.5369843 25.11317774 7.30233393 24.8125 11.8125 C24.544375 12.534375 24.27625 13.25625 24 14 C23.7215625 15.1446875 23.7215625 15.1446875 23.4375 16.3125 C23.293125 16.869375 23.14875 17.42625 23 18 C22.01 18 21.02 18 20 18 C19.67 13.38 19.34 8.76 19 4 C17.02 4 15.04 4 13 4 C10.75171948 8.49656104 10.83317728 12.07872966 11 17 C9.68 17.33 8.36 17.66 7 18 C5.84058962 14.52176885 6.29179116 12.54104422 7 9 C6.01 9 5.02 9 4 9 C3.9175 9.928125 3.835 10.85625 3.75 11.8125 C3 15 3 15 1.5 16.875 C-2.316933 18.59261985 -5.88438553 18.55021584 -10 18 C-13 16.6875 -13 16.6875 -15 15 C-16.11966589 11.64100234 -15.91915304 9.90071129 -15.375 6.4375 C-15.23835937 5.46683594 -15.10171875 4.49617187 -14.9609375 3.49609375 C-14 1 -14 1 -11.6953125 -0.34375 C-7.58829932 -1.34371843 -4.06101034 -1.17497587 0 0 Z M-9.75 4.125 C-11.59243126 6.88864689 -11.47285472 8.75756763 -11 12 C-9.42304368 14.0785608 -9.42304368 14.0785608 -7 15 C-3.80061304 14.92196617 -2.46870456 14.43745759 -0.125 12.25 C1.20569102 10.02772116 1.20569102 10.02772116 0.9375 7.375 C0.20773415 4.9026738 0.20773415 4.9026738 -1.8125 3.6875 C-4.7571357 2.76204307 -7.07029168 2.40233037 -9.75 4.125 Z M6 6 C7 8 7 8 7 8 Z " fill="#2C2A3B" transform="translate(229,143)"/>
<path d="M0 0 C1.65 0 3.3 0 5 0 C6.56158266 3.12316531 6.1472763 6.44607005 6.14526367 9.87451172 C6.14862228 10.68767853 6.1519809 11.50084534 6.15544128 12.33865356 C6.1649658 15.03568028 6.16689521 17.732645 6.16796875 20.4296875 C6.1711805 22.30054755 6.17454451 24.17140734 6.17805481 26.04226685 C6.18404998 29.96812523 6.18589433 33.89396158 6.18530273 37.81982422 C6.18520114 42.85273396 6.19884907 47.88550254 6.21607494 52.91837883 C6.22718906 56.78395233 6.22922212 60.64949165 6.22869301 64.5150795 C6.22987418 66.3706422 6.2343036 68.22620576 6.24202538 70.08175278 C6.25181254 72.67683565 6.24895218 75.2716115 6.24291992 77.86669922 C6.24853943 78.63463806 6.25415894 79.4025769 6.25994873 80.19378662 C6.23583787 84.27156172 5.87715069 86.24569861 4 90 C-4.58 90 -13.16 90 -22 90 C-22.99 87.03 -22.99 87.03 -24 84 C-25.11375 84.61875 -26.2275 85.2375 -27.375 85.875 C-34.98001065 89.65738625 -42.61783803 90.27039232 -51 90 C-51 89.34 -51 88.68 -51 88 C-50.18917969 87.97421875 -49.37835938 87.9484375 -48.54296875 87.921875 C-40.91535579 87.53117073 -33.83874867 86.61245376 -27 83 C-26.34 82.01 -25.68 81.02 -25 80 C-23.68 80.33 -22.36 80.66 -21 81 C-21 83.31 -21 85.62 -21 88 C-13.08 87.67 -5.16 87.34 3 87 C2.91461333 75.95179799 2.82092362 64.9037531 2.71247292 53.85575294 C2.66245388 48.72612861 2.6161245 43.59652544 2.578125 38.46679688 C2.54134284 33.51949844 2.49500251 28.5723747 2.44193649 23.62522507 C2.42335484 21.73455229 2.40826093 19.84384202 2.39665604 17.95311356 C2.37985784 15.31182076 2.3508391 12.67093136 2.31884766 10.02978516 C2.31668747 9.24216293 2.31452728 8.45454071 2.31230164 7.64305115 C2.39824861 3.35887735 2.39824861 3.35887735 0 0 Z " fill="#58B5A9" transform="translate(459,29)"/>
<path d="M0 0 C0.66 0 1.32 0 2 0 C2.16796543 7.51124879 2.32790385 15.02263728 2.48217773 22.53417969 C2.53565186 25.0911855 2.59098526 27.64815312 2.64819336 30.20507812 C2.72995337 33.87361411 2.8050952 37.54223407 2.87890625 41.2109375 C2.90594131 42.35992523 2.93297638 43.50891296 2.96083069 44.69271851 C2.98092697 45.7536673 3.00102325 46.81461609 3.02172852 47.90771484 C3.04171402 48.84481293 3.06169952 49.78191101 3.08229065 50.74740601 C3 53 3 53 2 55 C2.66 55 3.32 55 4 55 C4.33 56.98 4.66 58.96 5 61 C9.61582743 62.79538913 13.42753808 63.23613605 18.3671875 63.1953125 C19.04677521 63.1924826 19.72636292 63.18965271 20.42654419 63.18673706 C22.57621608 63.17562964 24.72545614 63.15054391 26.875 63.125 C28.34113977 63.11495795 29.80728614 63.10583425 31.2734375 63.09765625 C34.84925458 63.07743104 38.42414954 63.03826713 42 63 C42 56.4 42 49.8 42 43 C37.71 42.67 33.42 42.34 29 42 C29 41.67 29 41.34 29 41 C30.91583647 40.8041991 32.83272539 40.61867786 34.75 40.4375 C36.35101563 40.28087891 36.35101563 40.28087891 37.984375 40.12109375 C41 40 41 40 45 41 C45 49.25 45 57.5 45 66 C40.14267208 66.09217913 35.28841617 66.17170375 30.4309082 66.21972656 C28.78106363 66.23975797 27.1312893 66.26699142 25.48168945 66.30175781 C23.10089726 66.35065357 20.721049 66.3730528 18.33984375 66.390625 C17.61039047 66.41127014 16.88093719 66.43191528 16.12937927 66.45318604 C10.66471983 66.45554395 7.49518261 65.13503627 3 62 C-1.09913214 55.57802631 -1.15058089 49.26483222 -1.1328125 41.89453125 C-1.13376923 41.01528488 -1.13472595 40.13603851 -1.13571167 39.23014832 C-1.13639086 37.37177458 -1.1345548 35.51339845 -1.13037109 33.6550293 C-1.12505125 30.83962532 -1.13030835 28.02438321 -1.13671875 25.20898438 C-1.1360573 23.39583299 -1.13477475 21.5826817 -1.1328125 19.76953125 C-1.13483673 18.94000443 -1.13686096 18.1104776 -1.13894653 17.2558136 C-1.11619764 11.45371917 -0.66897574 5.76239399 0 0 Z " fill="#333E4B" transform="translate(321,53)"/>
<path d="M0 0 C1.79244141 0.01740234 1.79244141 0.01740234 3.62109375 0.03515625 C5.41740234 0.04869141 5.41740234 0.04869141 7.25 0.0625 C8.17683594 0.07410156 9.10367188 0.08570313 10.05859375 0.09765625 C10.05859375 0.75765625 10.05859375 1.41765625 10.05859375 2.09765625 C10.57421875 1.76765625 11.08984375 1.43765625 11.62109375 1.09765625 C14.97261971 -0.27732876 17.46824762 -0.28702369 21.05859375 0.09765625 C23.43359375 1.47265625 23.43359375 1.47265625 25.05859375 4.09765625 C26.13418616 9.11991056 26.55150901 14.12127204 25.05859375 19.09765625 C23.12109375 18.78515625 23.12109375 18.78515625 21.05859375 18.09765625 C20.09788941 15.21554323 19.95277492 13.39915581 19.99609375 10.41015625 C20.00511719 9.60191406 20.01414062 8.79367188 20.0234375 7.9609375 C20.03503906 7.34605469 20.04664062 6.73117188 20.05859375 6.09765625 C18.73859375 5.76765625 17.41859375 5.43765625 16.05859375 5.09765625 C14.26583509 8.21676481 13.71568657 10.77448053 13.43359375 14.34765625 C13.35882813 15.2396875 13.2840625 16.13171875 13.20703125 17.05078125 C13.15804687 17.72625 13.1090625 18.40171875 13.05859375 19.09765625 C12.06859375 19.09765625 11.07859375 19.09765625 10.05859375 19.09765625 C10.0328125 18.25460938 10.00703125 17.4115625 9.98046875 16.54296875 C9.89539063 14.89941406 9.89539063 14.89941406 9.80859375 13.22265625 C9.7621875 12.13210937 9.71578125 11.0415625 9.66796875 9.91796875 C9.35829545 6.99495369 9.35829545 6.99495369 7.13671875 5.65234375 C5.01915588 4.84122972 5.01915588 4.84122972 3.05859375 6.09765625 C2.62756277 8.61714266 2.62756277 8.61714266 2.49609375 11.53515625 C2.15276415 16.90931544 2.15276415 16.90931544 1.05859375 19.09765625 C0.06859375 19.09765625 -0.92140625 19.09765625 -1.94140625 19.09765625 C-2.00199219 18.30101562 -2.06257813 17.504375 -2.125 16.68359375 C-2.6479892 10.02360918 -2.6479892 10.02360918 -3.56640625 3.41015625 C-3.69015625 2.64703125 -3.81390625 1.88390625 -3.94140625 1.09765625 C-2.94140625 0.09765625 -2.94140625 0.09765625 0 0 Z " fill="#272638" transform="translate(55.94140625,141.90234375)"/>
<path d="M0 0 C2.5625 1.75 2.5625 1.75 4 4 C3.75 6.25 3.75 6.25 3 8 C0.13275314 7.42655063 -0.8614515 7.1385485 -3 5 C-3.99 5 -4.98 5 -6 5 C-6 6.32 -6 7.64 -6 9 C-5.2575 9.268125 -4.515 9.53625 -3.75 9.8125 C-1.01269737 10.99451704 0.89239668 11.89239668 3 14 C4.29351877 17.71886648 4.33259237 19.30457959 2.625 22.875 C-0.68506128 25.55457341 -2.70859921 25.66284205 -6.87109375 25.4296875 C-9 25 -9 25 -11.5625 23.1875 C-13 21 -13 21 -13 18 C-11.1875 17.375 -11.1875 17.375 -9 17 C-6 19 -6 19 -5 20 C-5 20.66 -5 21.32 -5 22 C-3.68 20.68 -2.36 19.36 -1 18 C-1.33 17.01 -1.66 16.02 -2 15 C-2.9075 14.9175 -3.815 14.835 -4.75 14.75 C-8.49841035 13.88498223 -9.79943285 13.13157632 -12 10 C-12.60024477 6.39853135 -12.45562482 4.72140596 -10.5 1.625 C-7.00131401 -0.6491459 -4.06310464 -0.83090074 0 0 Z " fill="#2E2C3C" transform="translate(48,136)"/>
<path d="M0 0 C1.27133789 0.00966797 1.27133789 0.00966797 2.56835938 0.01953125 C3.8899707 0.04466797 3.8899707 0.04466797 5.23828125 0.0703125 C6.57729492 0.08384766 6.57729492 0.08384766 7.94335938 0.09765625 C10.14610439 0.12121502 12.34830713 0.15410921 14.55078125 0.1953125 C14.22078125 1.5153125 13.89078125 2.8353125 13.55078125 4.1953125 C7.28078125 3.5353125 1.01078125 2.8753125 -5.44921875 2.1953125 C-5.44921875 4.5053125 -5.44921875 6.8153125 -5.44921875 9.1953125 C-8.35167873 10.04356665 -9.89712743 10.42787151 -12.73046875 9.234375 C-13.46265625 8.76773438 -14.19484375 8.30109375 -14.94921875 7.8203125 C-20.64262385 4.23186351 -25.75739279 4.01396786 -32.38671875 4.0078125 C-33.07701172 3.99556641 -33.76730469 3.98332031 -34.47851562 3.97070312 C-38.88102108 3.95818415 -42.34280693 4.66664825 -46.44921875 6.1953125 C-49.32421875 6.3203125 -49.32421875 6.3203125 -51.44921875 6.1953125 C-51.77921875 7.1853125 -52.10921875 8.1753125 -52.44921875 9.1953125 C-54.39513267 10.33602066 -56.33917023 11.1540443 -58.44921875 11.9453125 C-61.35126007 13.75908833 -62.61988961 16.33698572 -64.44921875 19.1953125 C-65.12984375 19.8346875 -65.81046875 20.4740625 -66.51171875 21.1328125 C-69.11787502 23.90710789 -70.08636455 26.65189158 -71.44921875 30.1953125 C-72.10921875 30.1953125 -72.76921875 30.1953125 -73.44921875 30.1953125 C-70.84664786 19.43801948 -63.97365117 12.12849905 -54.64453125 6.375 C-42.93870131 0.08467858 -29.12191028 -0.55497995 -16.44921875 3.1953125 C-13.37738637 4.39474631 -10.40110019 5.72650193 -7.44921875 7.1953125 C-7.51109375 6.4115625 -7.57296875 5.6278125 -7.63671875 4.8203125 C-7.54390625 3.5209375 -7.54390625 3.5209375 -7.44921875 2.1953125 C-4.2960709 0.09321393 -3.58818794 -0.0481636 0 0 Z " fill="#5DA89C" transform="translate(443.44921875,27.8046875)"/>
<path d="M0 0 C1.58206057 0.00667536 3.16410534 0.0186375 4.74609375 0.03515625 C5.55240234 0.03966797 6.35871094 0.04417969 7.18945312 0.04882812 C9.18753131 0.06065107 11.18557158 0.07858711 13.18359375 0.09765625 C13.18359375 0.42765625 13.18359375 0.75765625 13.18359375 1.09765625 C7.90359375 1.09765625 2.62359375 1.09765625 -2.81640625 1.09765625 C-2.48640625 17.92765625 -2.15640625 34.75765625 -1.81640625 52.09765625 C6.10359375 52.09765625 14.02359375 52.09765625 22.18359375 52.09765625 C22.18359375 45.49765625 22.18359375 38.89765625 22.18359375 32.09765625 C22.84359375 32.42765625 23.50359375 32.75765625 24.18359375 33.09765625 C24.212546 36.38930454 24.23037605 39.68092024 24.24609375 42.97265625 C24.25447266 43.90980469 24.26285156 44.84695312 24.27148438 45.8125 C24.27631836 47.15634766 24.27631836 47.15634766 24.28125 48.52734375 C24.28910522 49.76846924 24.28910522 49.76846924 24.29711914 51.03466797 C24.18359375 53.09765625 24.18359375 53.09765625 23.18359375 55.09765625 C18.70444047 55.12651963 14.22531084 55.14440812 9.74609375 55.16015625 C8.46669922 55.16853516 7.18730469 55.17691406 5.86914062 55.18554688 C4.65419922 55.18876953 3.43925781 55.19199219 2.1875 55.1953125 C1.06158447 55.20054932 -0.06433105 55.20578613 -1.22436523 55.21118164 C-3.81640625 55.09765625 -3.81640625 55.09765625 -4.81640625 54.09765625 C-4.91509134 52.44574229 -4.94439462 50.78962408 -4.94580078 49.13476562 C-4.94895294 48.07696899 -4.9521051 47.01917236 -4.95535278 45.92932129 C-4.95231644 44.20280334 -4.95231644 44.20280334 -4.94921875 42.44140625 C-4.95017548 41.26880249 -4.9511322 40.09619873 -4.95211792 38.88806152 C-4.95279995 36.40307563 -4.95094409 33.91808796 -4.94677734 31.43310547 C-4.94142944 27.61421738 -4.94672161 23.7954469 -4.953125 19.9765625 C-4.95246422 17.56901016 -4.95118307 15.16145788 -4.94921875 12.75390625 C-4.95124298 11.60289429 -4.95326721 10.45188232 -4.95535278 9.26599121 C-4.95220062 8.20819458 -4.94904846 7.15039795 -4.94580078 6.06054688 C-4.94500519 5.12424438 -4.94420959 4.18794189 -4.94338989 3.2232666 C-4.71933695 -0.52721062 -3.94906509 0.1010508 0 0 Z " fill="#55998C" transform="translate(76.81640625,63.90234375)"/>
<path d="M0 0 C0.66 0.33 1.32 0.66 2 1 C-2.00059947 6.94161283 -6.00263028 12.88225969 -10.00561523 18.82226562 C-11.36466202 20.83930075 -12.72339186 22.85654947 -14.08178711 24.87402344 C-16.04455785 27.78898667 -18.00850145 30.70315674 -19.97265625 33.6171875 C-20.57086685 34.50614716 -21.16907745 35.39510681 -21.78541565 36.31100464 C-33.124107 53.124107 -33.124107 53.124107 -35 55 C-36.99964982 55.08758003 -39.0023611 55.10696576 -41.00390625 55.09765625 C-42.21884766 55.09443359 -43.43378906 55.09121094 -44.68554688 55.08789062 C-45.96494141 55.07951172 -47.24433594 55.07113281 -48.5625 55.0625 C-49.84576172 55.05798828 -51.12902344 55.05347656 -52.45117188 55.04882812 C-55.63416022 55.03699545 -58.81705762 55.02051068 -62 55 C-62 54.34 -62 53.68 -62 53 C-61.26885986 52.99589111 -60.53771973 52.99178223 -59.78442383 52.98754883 C-56.45963693 52.95457791 -53.13667384 52.88392853 -49.8125 52.8125 C-48.66201172 52.80669922 -47.51152344 52.80089844 -46.32617188 52.79492188 C-39.73127387 52.70795258 -39.73127387 52.70795258 -33.9609375 49.875 C-31.79798641 46.70382071 -29.71766343 43.51875067 -27.8125 40.1875 C-26.59801321 38.06729425 -25.35287506 36.03976527 -24 34 C-23.34 34 -22.68 34 -22 34 C-21.79375 33.34 -21.5875 32.68 -21.375 32 C-20.15620149 29.34080325 -18.97641818 27.57968937 -17.1875 25.3125 C-14.81931023 22.27753835 -13.07529748 19.29541109 -11.4375 15.8125 C-9.49196731 11.72812848 -7.34725729 9.08977596 -4 6 C-2.56116887 4.05197214 -1.28926216 2.05326937 0 0 Z " fill="#5DA296" transform="translate(261,64)"/>
<path d="M0 0 C1.5625 2.8125 1.5625 2.8125 3 6 C2.67 6.99 2.34 7.98 2 9 C2.33 9.66 2.66 10.32 3 11 C3.25 14 3.25 14 3 17 C-1.08430208 19.72286806 -3.14590877 19.38524534 -8 19 C-10 16 -10 16 -10 13 C-9.01 13 -8.02 13 -7 13 C-7.309375 12.4225 -7.61875 11.845 -7.9375 11.25 C-8.96101672 9.08255283 -9.70290671 7.37674631 -10 5 C-8.00403119 -0.37376217 -5.36283617 -0.11658339 0 0 Z M-5 4 C-5 4.99 -5 5.98 -5 7 C-4.01 7.33 -3.02 7.66 -2 8 C-2.33 6.68 -2.66 5.36 -3 4 C-3.66 4 -4.32 4 -5 4 Z M-3 12 C-3.99 12.99 -4.98 13.98 -6 15 C-5.01 15.33 -4.02 15.66 -3 16 C-2.34 15.34 -1.68 14.68 -1 14 C-1.66 13.34 -2.32 12.68 -3 12 Z " fill="#39353F" transform="translate(265,142)"/>
<path d="M0 0 C0.93199219 -0.00128906 1.86398438 -0.00257812 2.82421875 -0.00390625 C4.28794922 0.00189453 4.28794922 0.00189453 5.78125 0.0078125 C6.75707031 0.00394531 7.73289063 0.00007813 8.73828125 -0.00390625 C10.13626953 -0.00197266 10.13626953 -0.00197266 11.5625 0 C12.41908203 0.00112793 13.27566406 0.00225586 14.15820312 0.00341797 C16.28125 0.1328125 16.28125 0.1328125 18.28125 1.1328125 C17.88567996 7.33007653 15.80635982 12.01536336 12.28125 17.1328125 C11.29125 17.6278125 11.29125 17.6278125 10.28125 18.1328125 C11.15625 13.2578125 11.15625 13.2578125 12.28125 12.1328125 C12.35330511 10.44672284 12.36511068 8.75780591 12.34375 7.0703125 C12.323125 5.4409375 12.3025 3.8115625 12.28125 2.1328125 C6.34125 2.1328125 0.40125 2.1328125 -5.71875 2.1328125 C-6.37875 3.4528125 -7.03875 4.7728125 -7.71875 6.1328125 C-11.09705093 9.86672405 -13.90387412 12.7641978 -19.015625 13.43359375 C-26.26680209 13.46823313 -31.58189868 12.22404672 -37.71875 8.1328125 C-37.38875 7.1428125 -37.05875 6.1528125 -36.71875 5.1328125 C-35.3265625 6.091875 -35.3265625 6.091875 -33.90625 7.0703125 C-28.59775189 10.50522304 -23.89721385 10.80887541 -17.71875 10.1328125 C-12.79047076 8.42186272 -9.75287891 5.29069285 -6.71875 1.1328125 C-4.28983818 -0.08164341 -2.71155557 0.00357052 0 0 Z " fill="#57A194" transform="translate(173.71875,82.8671875)"/>
<path d="M0 0 C5.79363532 1.52268621 9.70707995 2.64900491 13 8 C14.74273088 11.48546176 14.44282275 15.1892296 14 19 C12.66282249 22.99625051 10.69215781 25.52318017 7.1875 27.9375 C2.27065029 29.5764499 -1.31830938 29.62651219 -6.1875 27.8125 C-9.80761046 25.47953993 -12.07772378 22.84455245 -14 19 C-14.40399154 13.74810993 -13.88990343 10.43118526 -11 6 C-9.09354435 3.97071947 -7.32711804 2.61473497 -5 1 C-3.68 1 -2.36 1 -1 1 C-2 4 -2 4 -3.84765625 5.16796875 C-4.57855469 5.50441406 -5.30945313 5.84085938 -6.0625 6.1875 C-6.79597656 6.53167969 -7.52945313 6.87585937 -8.28515625 7.23046875 C-8.85105469 7.48441406 -9.41695313 7.73835938 -10 8 C-10.020625 9.27875 -10.04125 10.5575 -10.0625 11.875 C-10.07410156 12.59429687 -10.08570312 13.31359375 -10.09765625 14.0546875 C-10.12649242 16.08185404 -10.12649242 16.08185404 -9 18 C-9.66 18 -10.32 18 -11 18 C-9.18840145 22.64479467 -9.18840145 22.64479467 -5.1875 25.375 C-0.09722491 26.37309316 4.45883209 26.82288816 9 24 C11.20166199 20.25717462 12 17.7232708 12 13.375 C10.41212673 8.01592771 7.49244954 5.81662333 2.6875 3.1875 C1.800625 2.795625 0.91375 2.40375 0 2 C0 1.34 0 0.68 0 0 Z " fill="#5DA092" transform="translate(86,31)"/>
<path d="M0 0 C0.66 0 1.32 0 2 0 C2.19825948 3.37445728 2.38167324 6.74956722 2.5625 10.125 C2.64661133 11.55199219 2.64661133 11.55199219 2.73242188 13.0078125 C3.22763149 22.51583708 3.22763149 22.51583708 2 27 C-1.13088871 28.56544436 -4.42714023 28.00148591 -7.8515625 27.87890625 C-9.01261002 27.84348976 -9.01261002 27.84348976 -10.19711304 27.80735779 C-12.6732603 27.73068562 -15.14909759 27.64667684 -17.625 27.5625 C-19.30206808 27.50928285 -20.97915137 27.45654243 -22.65625 27.40429688 C-26.77103023 27.27506572 -30.88554725 27.13925354 -35 27 C-35.33 27.66 -35.66 28.32 -36 29 C-36 27.68 -36 26.36 -36 25 C-24.12 25 -12.24 25 0 25 C-0.495 20.545 -0.495 20.545 -1 16 C-0.70764733 13.66117862 -0.37400786 11.32716 0 9 C0.08674195 5.99776457 0.0612772 3.00258296 0 0 Z " fill="#5BAFA0" transform="translate(100,0)"/>
<path d="M0 0 C0.22389218 2.52029979 0.42942078 5.03997257 0.625 7.5625 C0.68945312 8.26697266 0.75390625 8.97144531 0.8203125 9.69726562 C1.18349638 14.62294699 0.60922409 18.32587966 -1 23 C-1.33 23 -1.66 23 -2 23 C-2 16.07 -2 9.14 -2 2 C-9.59 2.33 -17.18 2.66 -25 3 C-25.33 4.32 -25.66 5.64 -26 7 C-25.34 7.33 -24.68 7.66 -24 8 C-24.33 8.33 -24.66 8.66 -25 9 C-25.23481693 11.18292774 -25.41363323 13.37203174 -25.5625 15.5625 C-25.64628906 16.76003906 -25.73007812 17.95757812 -25.81640625 19.19140625 C-25.87699219 20.11824219 -25.93757813 21.04507813 -26 22 C-26.33 22 -26.66 22 -27 22 C-28.87744205 14.72491206 -28.06755357 7.3394308 -27 0 C-17.88651147 -1.30192693 -9.13466832 -0.6888091 0 0 Z " fill="#2F364A" transform="translate(313,64)"/>
<path d="M0 0 C0.66 0 1.32 0 2 0 C3.20194587 17.66431155 3.10354036 35.3057496 3 53 C2.34 53 1.68 53 1 53 C-0.24177521 50.51644959 -0.12036681 48.86892378 -0.11352539 46.09130859 C-0.11344986 45.07040131 -0.11337433 44.04949402 -0.11329651 42.99765015 C-0.10813522 41.89240997 -0.10297394 40.7871698 -0.09765625 39.6484375 C-0.0962413 38.5192691 -0.09482635 37.39010071 -0.09336853 36.22671509 C-0.08775744 32.60945012 -0.07520303 28.99224636 -0.0625 25.375 C-0.05748643 22.92708423 -0.05292328 20.47916748 -0.04882812 18.03125 C-0.0377844 12.02081234 -0.02103544 6.01041054 0 0 Z " fill="#3B3F4A" transform="translate(320,0)"/>
<path d="M0 0 C0.33 0 0.66 0 1 0 C1.00410889 0.68924561 1.00821777 1.37849121 1.01245117 2.08862305 C1.2063815 26.1486109 1.2063815 26.1486109 13.81640625 45.9765625 C18.07175041 49.91979734 21.62501451 51.72370946 27.1875 53.5625 C29.47742604 54.31951983 31.75453157 55.11982285 34 56 C34.33 56.66 34.66 57.32 35 58 C25.38236621 57.63707042 16.75716128 52.75716128 10 46 C1.55383012 35.63839203 -1.19373174 25.5714942 -1.125 12.375 C-1.12886719 11.62476562 -1.13273437 10.87453125 -1.13671875 10.1015625 C-1.13044589 6.56366956 -0.95251112 3.40236592 0 0 Z " fill="#569D92" transform="translate(369,60)"/>
<path d="M0 0 C0.66 0 1.32 0 2 0 C2 9.57 2 19.14 2 29 C7.61 29 13.22 29 19 29 C19 35.93 19 42.86 19 50 C13.72 50 8.44 50 3 50 C3 49.67 3 49.34 3 49 C7.95 49 12.9 49 18 49 C17.67 43.39 17.34 37.78 17 32 C11.06 31.67 5.12 31.34 -1 31 C-0.67 20.77 -0.34 10.54 0 0 Z " fill="#2E3142" transform="translate(346,0)"/>
<path d="M0 0 C1.32 0.33 2.64 0.66 4 1 C4 3.31 4 5.62 4 8 C12.58 7.67 21.16 7.34 30 7 C29.67 7.99 29.34 8.98 29 10 C20.42 10 11.84 10 3 10 C2.34 8.02 1.68 6.04 1 4 C-0.11375 4.61875 -1.2275 5.2375 -2.375 5.875 C-9.98001065 9.65738625 -17.61783803 10.27039232 -26 10 C-26 9.34 -26 8.68 -26 8 C-25.18917969 7.97421875 -24.37835938 7.9484375 -23.54296875 7.921875 C-15.91535579 7.53117073 -8.83874867 6.61245376 -2 3 C-1.34 2.01 -0.68 1.02 0 0 Z " fill="#509C8F" transform="translate(434,109)"/>
<path d="M0 0 C1.32 0 2.64 0 4 0 C5.625 2.25 5.625 2.25 7 5 C7.391875 5.763125 7.78375 6.52625 8.1875 7.3125 C8.455625 7.869375 8.72375 8.42625 9 9 C8.01 10.485 8.01 10.485 7 12 C6.01 12 5.02 12 4 12 C4.165 12.53625 4.33 13.0725 4.5 13.625 C5.25380664 17.20558153 5.6648499 20.6703002 4 24 C3.01 24 2.02 24 1 24 C1 19.05 1 14.1 1 9 C0.01 8.67 -0.98 8.34 -2 8 C-1.01 8 -0.02 8 1 8 C1 7.34 1 6.68 1 6 C0.34 6 -0.32 6 -1 6 C-1.042721 4.33388095 -1.04063832 2.66617115 -1 1 C-0.67 0.67 -0.34 0.34 0 0 Z " fill="#252533" transform="translate(118,136)"/>
<path d="M0 0 C2.5625 1.75 2.5625 1.75 4 4 C3.75 6.25 3.75 6.25 3 8 C0.13275314 7.42655063 -0.8614515 7.1385485 -3 5 C-5.10820797 5.3185177 -5.10820797 5.3185177 -7 6 C-6.67 8.31 -6.34 10.62 -6 13 C-3.69 13.66 -1.38 14.32 1 15 C0.01 15.66 -0.98 16.32 -2 17 C-2 16.34 -2 15.68 -2 15 C-2.9075 14.9175 -3.815 14.835 -4.75 14.75 C-8.49841035 13.88498223 -9.79943285 13.13157632 -12 10 C-12.60024477 6.39853135 -12.45562482 4.72140596 -10.5 1.625 C-7.00131401 -0.6491459 -4.06310464 -0.83090074 0 0 Z " fill="#423E4C" transform="translate(48,136)"/>
<path d="M0 0 C0.99 0 1.98 0 3 0 C3 2.64 3 5.28 3 8 C3.66 8 4.32 8 5 8 C5.33 6.68 5.66 5.36 6 4 C6.99 4 7.98 4 9 4 C8.34 6.31 7.68 8.62 7 11 C6.01 11 5.02 11 4 11 C4 15.62 4 20.24 4 25 C3.01 25 2.02 25 1 25 C0.66307215 23.39658445 0.33058907 21.79223445 0 20.1875 C-0.185625 19.29417969 -0.37125 18.40085938 -0.5625 17.48046875 C-1 15 -1 15 -1 12 C-1.3062434 10.66018514 -1.63451555 9.32488113 -2 8 C-1.01 8 -0.02 8 1 8 C1 6.68 1 5.36 1 4 C0.34 4 -0.32 4 -1 4 C-0.67 2.68 -0.34 1.36 0 0 Z " fill="#302F3C" transform="translate(199,136)"/>
<path d="M0 0 C1 3 1 3 0.1796875 5.05078125 C-2.55039167 9.78346341 -5.37663598 13.91210213 -9 18 C-12.67347544 22.34138007 -15.48919027 26.82729957 -17.9375 31.96875 C-19.07482547 34.14304869 -20.38558506 35.9889131 -21.875 37.9375 C-22.4009375 38.62714844 -22.926875 39.31679688 -23.46875 40.02734375 C-25.28832928 42.37144461 -27.12874799 44.6969206 -29 47 C-29.66 46.67 -30.32 46.34 -31 46 C-25.26160588 37.30990795 -19.3984369 28.70742727 -13.52490234 20.10839844 C-8.97034171 13.43573152 -4.45184934 6.74177823 0 0 Z " fill="#5EA899" transform="translate(271,1)"/>
<path d="M0 0 C1.98 0.495 1.98 0.495 4 1 C4.66 3.97 5.32 6.94 6 10 C5.01 10.495 5.01 10.495 4 11 C4.01160156 11.84304687 4.02320313 12.68609375 4.03515625 13.5546875 C4.04869141 15.19824219 4.04869141 15.19824219 4.0625 16.875 C4.07410156 17.96554688 4.08570313 19.05609375 4.09765625 20.1796875 C4 23 4 23 3 25 C2.01 25 1.02 25 0 25 C-0.19585353 21.02119772 -0.3802867 17.04194844 -0.5625 13.0625 C-0.61857422 11.92619141 -0.67464844 10.78988281 -0.73242188 9.61914062 C-0.78076172 8.53955078 -0.82910156 7.45996094 -0.87890625 6.34765625 C-0.9260376 5.34742432 -0.97316895 4.34719238 -1.02172852 3.31665039 C-1 1 -1 1 0 0 Z " fill="#3C3845" transform="translate(171,136)"/>
<path d="M0 0 C0.66 0.33 1.32 0.66 2 1 C2 1.66 2 2.32 2 3 C7.64347086 3.91122528 13.22997887 4.29774046 18.9375 4.5625 C19.81212891 4.60568359 20.68675781 4.64886719 21.58789062 4.69335938 C23.72511995 4.79846901 25.86254238 4.89963985 28 5 C28 4.34 28 3.68 28 3 C28.99 3.33 29.98 3.66 31 4 C31 4.99 31 5.98 31 7 C26.90682137 7.16754147 22.81343505 7.32810824 18.71972656 7.48217773 C17.32674778 7.53559149 15.93384107 7.59092043 14.54101562 7.64819336 C12.54056398 7.73012069 10.5398125 7.80462098 8.5390625 7.87890625 C6.73236084 7.94960327 6.73236084 7.94960327 4.88916016 8.02172852 C2 8 2 8 0 7 C-1.26229508 2.52459016 -1.26229508 2.52459016 0 0 Z " fill="#313543" transform="translate(250,112)"/>
<path d="M0 0 C0.66 0.33 1.32 0.66 2 1 C1.67 1.99 1.34 2.98 1 4 C0.15911985 12.18527638 0.25259162 19.06148005 5 26 C8.40754493 29.40754493 12.40998388 30.78446213 17 32 C17 32.66 17 33.32 17 34 C12.43545749 33.45660208 9.0271824 32.20536179 5 30 C5 29.34 5 28.68 5 28 C4.34 28 3.68 28 3 28 C2.18247697 26.41925436 1.37118003 24.83528777 0.5625 23.25 C0.11003906 22.36828125 -0.34242188 21.4865625 -0.80859375 20.578125 C-3.41419666 14.93977117 -3.7387562 9.65952232 -2.0625 3.625 C-1 1 -1 1 0 0 Z " fill="#59A598" transform="translate(394,63)"/>
<path d="M0 0 C0.99 0.33 1.98 0.66 3 1 C4.45910152 5.24465896 3.69015548 8.07856209 2 12.0625 C0.38133648 15.19866057 -1.08968706 16.97543448 -4 19 C-7.04877338 19.39454714 -9.94602176 19.29940963 -13 19 C-13 18.67 -13 18.34 -13 18 C-11.88625 17.79375 -10.7725 17.5875 -9.625 17.375 C-7.830625 16.694375 -7.830625 16.694375 -6 16 C-4.61598022 13.01604708 -4.61598022 13.01604708 -4 10 C-3.34 9.67 -2.68 9.34 -2 9 C-2 8.01 -2 7.02 -2 6 C-1.34 5.01 -0.68 4.02 0 3 C0 2.01 0 1.02 0 0 Z " fill="#2F3647" transform="translate(310,40)"/>
<path d="M0 0 C0.33 0 0.66 0 1 0 C1 9.9 1 19.8 1 30 C1.99 29.34 2.98 28.68 4 28 C4.33 28.99 4.66 29.98 5 31 C3 34 3 34 0 36 C0 35.34 0 34.68 0 34 C-0.66 34 -1.32 34 -2 34 C-1.88168573 29.6398718 -1.75743287 25.27996549 -1.62768555 20.92016602 C-1.5843867 19.43713985 -1.54270801 17.95406546 -1.50268555 16.47094727 C-1.44486042 14.33855661 -1.38120168 12.20640758 -1.31640625 10.07421875 C-1.27974854 8.79119873 -1.24309082 7.50817871 -1.20532227 6.1862793 C-1 3 -1 3 0 0 Z " fill="#56A89D" transform="translate(226,35)"/>
<path d="M0 0 C9.64730941 -0.85753861 18.09019601 3.37301851 25.70703125 9.00390625 C30.76068081 13.40325024 34.93192832 19.04433145 38 25 C38 25.66 38 26.32 38 27 C37.34 27 36.68 27 36 27 C35.70867187 26.40832031 35.41734375 25.81664063 35.1171875 25.20703125 C32.34490003 19.86296766 29.83088992 16.57065776 25 13 C24 12 23 11 22 10 C18.70611989 7.05284411 16.42810056 5.50606864 12 5 C12 4.34 12 3.68 12 3 C6.06 2.01 6.06 2.01 0 1 C0 0.67 0 0.34 0 0 Z " fill="#59A799" transform="translate(152,30)"/>
<path d="M0 0 C3.53538796 0.85995923 4.77308049 1.64341219 6.75 4.75 C9.53681914 12.27124484 9.56127698 21.22909868 8 29 C7.34 29 6.68 29 6 29 C5.74476563 29.59296875 5.48953125 30.1859375 5.2265625 30.796875 C3.88183502 33.21224538 2.50785633 34.51211706 0.375 36.25 C-0.57246094 37.03117187 -0.57246094 37.03117187 -1.5390625 37.828125 C-2.02117187 38.21484375 -2.50328125 38.6015625 -3 39 C-3 38.01 -3 37.02 -3 36 C-2.2575 35.46375 -1.515 34.9275 -0.75 34.375 C3.68956544 30.54082985 5.51513241 26.07980712 6.421875 20.3203125 C6.78972533 13.10635882 4.6496154 8.11460155 1 2 C0.67 1.34 0.34 0.68 0 0 Z " fill="#53A294" transform="translate(429,56)"/>
<path d="M0 0 C0 7.92 0 15.84 0 24 C-10.89 24 -21.78 24 -33 24 C-33 23.67 -33 23.34 -33 23 C-17.655 22.505 -17.655 22.505 -2 22 C-2 15.4 -2 8.8 -2 2 C-6.29 1.67 -10.58 1.34 -15 1 C-15 0.67 -15 0.34 -15 0 C-13.43867691 -0.1970602 -11.87584736 -0.38220155 -10.3125 -0.5625 C-9.44238281 -0.66691406 -8.57226562 -0.77132812 -7.67578125 -0.87890625 C-5 -1 -5 -1 0 0 Z " fill="#1C2030" transform="translate(365,94)"/>
<path d="M0 0 C1 3 1 3 -0.57421875 6.1640625 C-2.65765414 8.49468514 -3.82182352 8.97078106 -6.94775391 9.48339844 C-10.58614448 9.59163785 -14.17554371 9.52175768 -17.8125 9.375 C-19.71032227 9.33439453 -19.71032227 9.33439453 -21.64648438 9.29296875 C-24.7660547 9.22233697 -27.88215841 9.12373646 -31 9 C-31 8.34 -31 7.68 -31 7 C-30.26885986 6.99589111 -29.53771973 6.99178223 -28.78442383 6.98754883 C-25.45963693 6.95457791 -22.13667384 6.88392853 -18.8125 6.8125 C-17.66201172 6.80669922 -16.51152344 6.80089844 -15.32617188 6.79492188 C-8.43441086 6.86243849 -8.43441086 6.86243849 -2.76171875 3.51171875 C-2.18035156 2.68285156 -1.59898437 1.85398437 -1 1 C-0.67 0.67 -0.34 0.34 0 0 Z " fill="#589B8F" transform="translate(230,110)"/>
<path d="M0 0 C0.33 0 0.66 0 1 0 C1.19430855 2.6246601 1.38073238 5.24946765 1.5625 7.875 C1.61857422 8.62136719 1.67464844 9.36773437 1.73242188 10.13671875 C2.11328125 15.7734375 2.11328125 15.7734375 1 18 C13.375 17.505 13.375 17.505 26 17 C26.33 15.35 26.66 13.7 27 12 C27.33 12 27.66 12 28 12 C28.04254356 13.99954746 28.04080783 16.00041636 28 18 C26.19720809 19.80279191 23.45952299 19.13036605 21.03125 19.1328125 C19.82082031 19.13410156 18.61039062 19.13539062 17.36328125 19.13671875 C16.08839844 19.13285156 14.81351562 19.12898438 13.5 19.125 C12.22511719 19.12886719 10.95023437 19.13273437 9.63671875 19.13671875 C7.82107422 19.13478516 7.82107422 19.13478516 5.96875 19.1328125 C4.84919922 19.13168457 3.72964844 19.13055664 2.57617188 19.12939453 C0 19 0 19 -1 18 C-1.09986975 15.15664952 -1.13877881 12.34302837 -1.125 9.5 C-1.12886719 8.70207031 -1.13273437 7.90414062 -1.13671875 7.08203125 C-1.12660767 1.12660767 -1.12660767 1.12660767 0 0 Z " fill="#3E414B" transform="translate(286,100)"/>
<path d="M0 0 C0.77734375 1.58984375 0.77734375 1.58984375 1 4 C-0.39158704 6.35938623 -1.77995186 8.40444887 -3.4375 10.5625 C-4.1178833 11.47926514 -4.1178833 11.47926514 -4.81201172 12.41455078 C-5.74426604 13.66984738 -6.68147853 14.92147647 -7.62353516 16.16943359 C-9.66062816 18.87857218 -11.64005551 21.6274377 -13.625 24.375 C-14.74937289 25.91712409 -15.87411277 27.45898116 -17 29 C-17.33 28.01 -17.66 27.02 -18 26 C-17.525625 25.38125 -17.05125 24.7625 -16.5625 24.125 C-14.6671046 21.54726225 -14.73956012 20.12527858 -15 17 C-14.05125 16.7525 -13.1025 16.505 -12.125 16.25 C-8.99029991 15.35126459 -8.99029991 15.35126459 -7.9375 13.3125 C-7.628125 12.549375 -7.31875 11.78625 -7 11 C-6.18763893 9.81863424 -5.35191313 8.65316936 -4.5 7.5 C-2.73838586 5.08362663 -1.2099057 2.74978568 0 0 Z " fill="#59A193" transform="translate(296,12)"/>
<path d="M0 0 C2.0625 0.4375 2.0625 0.4375 4 1 C3.34 1 2.68 1 2 1 C2 3.31 2 5.62 2 8 C2.66 8 3.32 8 4 8 C3.67 7.01 3.34 6.02 3 5 C4.32 4.67 5.64 4.34 7 4 C6.67 4.66 6.34 5.32 6 6 C5.79670732 7.82963411 5.63527804 9.66408368 5.5 11.5 C5.11111111 16.77777778 5.11111111 16.77777778 4 19 C3.01 19 2.02 19 1 19 C0.93941406 18.20335937 0.87882812 17.40671875 0.81640625 16.5859375 C0.29341705 9.92595293 0.29341705 9.92595293 -0.625 3.3125 C-0.74875 2.549375 -0.8725 1.78625 -1 1 C-0.67 0.67 -0.34 0.34 0 0 Z " fill="#22224D" transform="translate(53,142)"/>
<path d="M0 0 C0.66 0 1.32 0 2 0 C3.96427481 6.13835878 3.01560924 10.95317229 1 17 C-7.25 17 -15.5 17 -24 17 C-24 16.67 -24 16.34 -24 16 C-16.41 15.67 -8.82 15.34 -1 15 C-0.67 10.05 -0.34 5.1 0 0 Z " fill="#1D233F" transform="translate(311,101)"/>
<path d="M0 0 C0.33 0.66 0.66 1.32 1 2 C0.0925 1.67 -0.815 1.34 -1.75 1 C-7.34608285 -0.5728298 -14.52447971 -1.52701786 -19.96484375 0.86328125 C-21.36068652 1.84001601 -22.68585795 2.91583281 -24 4 C-26.15625 4.62890625 -26.15625 4.62890625 -28 5 C-27.23883449 3.84772177 -26.46567307 2.7033614 -25.6875 1.5625 C-25.25824219 0.92441406 -24.82898438 0.28632812 -24.38671875 -0.37109375 C-19.13175962 -6.54382039 -6.21061961 -3.04671905 0 0 Z " fill="#5AA195" transform="translate(162,55)"/>
<path d="M0 0 C1.32 0 2.64 0 4 0 C5.625 2.25 5.625 2.25 7 5 C7.391875 5.763125 7.78375 6.52625 8.1875 7.3125 C8.455625 7.869375 8.72375 8.42625 9 9 C8.01 10.485 8.01 10.485 7 12 C6.01 12 5.02 12 4 12 C3.67 12.66 3.34 13.32 3 14 C3.020625 13.05125 3.04125 12.1025 3.0625 11.125 C3.22551826 8.09333717 3.22551826 8.09333717 2 6 C1.01 5.34 0.02 4.68 -1 4 C-0.67 2.68 -0.34 1.36 0 0 Z " fill="#363540" transform="translate(118,136)"/>
<path d="M0 0 C0.66 0 1.32 0 2 0 C2 0.66 2 1.32 2 2 C10.58 2 19.16 2 28 2 C28 2.66 28 3.32 28 4 C19.09 4 10.18 4 1 4 C0.67 2.68 0.34 1.36 0 0 Z " fill="#4B9E8D" transform="translate(513,115)"/>
<path d="M0 0 C3.09310564 3.09310564 2.83904423 6.75662052 3 11 C2.5625 14.0625 2.5625 14.0625 2 16 C0.0625 15.6875 0.0625 15.6875 -2 15 C-3.1577506 11.52674819 -3.06866652 8.63932552 -3 5 C-2.34 5 -1.68 5 -1 5 C-0.67 3.35 -0.34 1.7 0 0 Z " fill="#141620" transform="translate(79,145)"/>
<path d="M0 0 C-1 3 -1 3 -2.84765625 4.16796875 C-3.57855469 4.50441406 -4.30945313 4.84085938 -5.0625 5.1875 C-5.79597656 5.53167969 -6.52945313 5.87585937 -7.28515625 6.23046875 C-7.85105469 6.48441406 -8.41695313 6.73835938 -9 7 C-9.020625 8.27875 -9.04125 9.5575 -9.0625 10.875 C-9.07410156 11.59429687 -9.08570312 12.31359375 -9.09765625 13.0546875 C-9.12649242 15.08185404 -9.12649242 15.08185404 -8 17 C-9.65 17.33 -11.3 17.66 -13 18 C-13.31571333 12.73811115 -12.89914347 9.44535331 -10 5 C-6.82039333 1.61554472 -4.84669427 0 0 0 Z " fill="#62A599" transform="translate(85,32)"/>
<path d="M0 0 C0.33 0 0.66 0 1 0 C1 8.25 1 16.5 1 25 C0.67 23.68 0.34 22.36 0 21 C-0.66 21 -1.32 21 -2 21 C-2.3690205 6.21867882 -2.3690205 6.21867882 0 0 Z " fill="#4F535E" transform="translate(313,80)"/>
<path d="M0 0 C0.66 0 1.32 0 2 0 C2.19682269 3.43703301 2.38085152 6.87463427 2.5625 10.3125 C2.61857422 11.28896484 2.67464844 12.26542969 2.73242188 13.27148438 C2.78076172 14.20927734 2.82910156 15.14707031 2.87890625 16.11328125 C2.94960327 17.40939331 2.94960327 17.40939331 3.02172852 18.73168945 C3 21 3 21 2 24 C1.34 24 0.68 24 0 24 C-0.85220081 18.60272818 -0.85788144 14.43324913 0 9 C0.0866033 5.99775215 0.06127741 3.00259309 0 0 Z " fill="#4EB2A2" transform="translate(100,0)"/>
<path d="M0 0 C0 0.66 0 1.32 0 2 C1.39195915 4.7839183 3.15575779 4.97898997 6 6 C6 6.33 6 6.66 6 7 C-2.11722488 7.62440191 -2.11722488 7.62440191 -5.5625 5.1875 C-7 3 -7 3 -7 0 C-4.3333581 -1.33332095 -2.83319697 -0.67102033 0 0 Z " fill="#323543" transform="translate(42,154)"/>
<path d="M0 0 C-0.78761719 0.06316406 -1.57523438 0.12632813 -2.38671875 0.19140625 C-12.49542568 1.32788809 -21.74058748 4.62786368 -29 12 C-29.66 12 -30.32 12 -31 12 C-31 11.34 -31 10.68 -31 10 C-24.17359756 3.98802735 -8.87422746 -5.91615164 0 0 Z " fill="#5FAA9D" transform="translate(151,31)"/>
<path d="M0 0 C0.33 0 0.66 0 1 0 C1.1875 2.375 1.1875 2.375 1 5 C-3.08430208 7.72286806 -5.14590877 7.38524534 -10 7 C-12 4 -12 4 -12 1 C-9.61435923 1.57584432 -7.33317216 2.22227595 -5 3 C-3.33378384 3.03874921 -1.66605828 3.0450286 0 3 C0 2.01 0 1.02 0 0 Z " fill="#323141" transform="translate(267,154)"/>
<path d="M0 0 C1.65 0 3.3 0 5 0 C6.17114775 2.85001852 6.05939414 3.85668377 4.85546875 6.76171875 C4.30503906 7.72722656 3.75460938 8.69273438 3.1875 9.6875 C2.64480469 10.66074219 2.10210937 11.63398437 1.54296875 12.63671875 C0 15 0 15 -2 16 C-1.125 11.125 -1.125 11.125 0 10 C0.07205511 8.31391034 0.08386068 6.62499341 0.0625 4.9375 C0.04896484 3.55884766 0.04896484 3.55884766 0.03515625 2.15234375 C0.02355469 1.44207031 0.01195312 0.73179688 0 0 Z " fill="#51BDAC" transform="translate(186,85)"/>
<path d="M0 0 C0.66 0.33 1.32 0.66 2 1 C1.0925 1.70125 0.185 2.4025 -0.75 3.125 C-3.86824601 5.70889869 -5.81824464 8.58191661 -8 12 C-8.680625 12.639375 -9.36125 13.27875 -10.0625 13.9375 C-12.66865627 16.71179539 -13.6371458 19.45657908 -15 23 C-15.66 23 -16.32 23 -17 23 C-14.51826574 12.74216505 -8.22387878 6.34953185 0 0 Z " fill="#56A095" transform="translate(387,35)"/>
<path d="M0 0 C2 3 2 3 2 6 C12.395 5.505 12.395 5.505 23 5 C23 3.35 23 1.7 23 0 C23.66 0 24.32 0 25 0 C25.38133299 1.9914056 25.71325582 3.99279077 26 6 C23.45166146 8.54833854 16.54813119 7.28302413 13.125 7.3125 C12.00996094 7.34150391 10.89492187 7.37050781 9.74609375 7.40039062 C8.67746094 7.40876953 7.60882813 7.41714844 6.5078125 7.42578125 C5.52441895 7.44036377 4.54102539 7.45494629 3.52783203 7.4699707 C1 7 1 7 -0.84423828 5.09838867 C-2 3 -2 3 -2 1 C-1.34 0.67 -0.68 0.34 0 0 Z " fill="#5C9B94" transform="translate(166,58)"/>
<path d="M0 0 C0.33 0 0.66 0 1 0 C2.30816086 7.84896513 2.53715066 14.38854803 0 22 C-0.33 22 -0.66 22 -1 22 C-1.02887814 18.52085059 -1.04675687 15.04173169 -1.0625 11.5625 C-1.07087891 10.56927734 -1.07925781 9.57605469 -1.08789062 8.55273438 C-1.09111328 7.60849609 -1.09433594 6.66425781 -1.09765625 5.69140625 C-1.10289307 4.81685791 -1.10812988 3.94230957 -1.11352539 3.04125977 C-1 1 -1 1 0 0 Z " fill="#262939" transform="translate(312,65)"/>
<path d="M0 0 C0.66 0.33 1.32 0.66 2 1 C-2.91855494 6.40102899 -7.99093684 11.47010146 -15 14 C-15.99 13.67 -16.98 13.34 -18 13 C-16 11 -16 11 -13.625 10.125 C-10.6282971 8.84069876 -9.2627506 7.32930208 -7 5 C-4.71139871 3.26125746 -2.36417106 1.63673381 0 0 Z " fill="#589E95" transform="translate(182,102)"/>
<path d="M0 0 C1.0625 1.875 1.0625 1.875 2 4 C1.67 4.66 1.34 5.32 1 6 C1.66 6 2.32 6 3 6 C3.33 7.98 3.66 9.96 4 12 C5.98 12.66 7.96 13.32 10 14 C8.02 14.99 8.02 14.99 6 16 C1.16709462 11.950809 -0.3833652 8.03280791 -2 2 C-1.34 1.34 -0.68 0.68 0 0 Z " fill="#272F3D" transform="translate(322,102)"/>
<path d="M0 0 C0 0.66 0 1.32 0 2 C-0.8353125 2.02126953 -0.8353125 2.02126953 -1.6875 2.04296875 C-9.85945921 2.5537162 -15.56331242 5.88372647 -21 12 C-20.67 10.35 -20.34 8.7 -20 7 C-19.01 6.67 -18.02 6.34 -17 6 C-16.67 5.01 -16.34 4.02 -16 3 C-10.58492219 -0.04598127 -6.13479598 -0.37559975 0 0 Z " fill="#5BA397" transform="translate(417,50)"/>
<path d="M0 0 C4.51617599 -0.07654536 8.59085217 -0.10228696 13 1 C13 2.65 13 4.3 13 6 C12.01 4.68 11.02 3.36 10 2 C9.67 2.99 9.34 3.98 9 5 C6.47946405 6.26026798 5.1457902 5.91874445 2.375 5.5625 C1.14910156 5.40974609 1.14910156 5.40974609 -0.1015625 5.25390625 C-1.04128906 5.12822266 -1.04128906 5.12822266 -2 5 C-0.6875 3.5 -0.6875 3.5 1 2 C1.99 2 2.98 2 4 2 C2.68 1.34 1.36 0.68 0 0 Z " fill="#403D4A" transform="translate(90,142)"/>
<path d="M0 0 C0.66 0.66 1.32 1.32 2 2 C-0.11773228 5.15078327 -2.24538187 8.29474075 -4.375 11.4375 C-5.27992188 12.78424805 -5.27992188 12.78424805 -6.203125 14.15820312 C-7.07324219 15.43920898 -7.07324219 15.43920898 -7.9609375 16.74609375 C-8.76217041 17.93223267 -8.76217041 17.93223267 -9.57958984 19.14233398 C-11 21 -11 21 -13 22 C-11.125 16.25 -11.125 16.25 -10 14 C-9.34 14 -8.68 14 -8 14 C-7.814375 13.1028125 -7.814375 13.1028125 -7.625 12.1875 C-7 10 -7 10 -5 7 C-4.34 7 -3.68 7 -3 7 C-3 6.01 -3 5.02 -3 4 C-2.34 4 -1.68 4 -1 4 C-0.67 2.68 -0.34 1.36 0 0 Z " fill="#53A296" transform="translate(276,41)"/>
<path d="M0 0 C0.20086443 3.71599191 0.1519437 4.77208445 -2 8 C-3.31387169 9.35251497 -4.64426252 10.68945377 -6 12 C-6.66 11.67 -7.32 11.34 -8 11 C-8 10.34 -8 9.68 -8 9 C-8.66 8.67 -9.32 8.34 -10 8 C-8.68 7.67 -7.36 7.34 -6 7 C-6 6.34 -6 5.68 -6 5 C-5.34 5 -4.68 5 -4 5 C-4 3.68 -4 2.36 -4 1 C-1 0 -1 0 0 0 Z " fill="#222231" transform="translate(170,149)"/>
<path d="M0 0 C1.32 0.66 2.64 1.32 4 2 C4.125 9.75 4.125 9.75 3 12 C2.01 11.67 1.02 11.34 0 11 C-0.19406478 9.35492782 -0.38007935 7.70890406 -0.5625 6.0625 C-0.66691406 5.14597656 -0.77132812 4.22945312 -0.87890625 3.28515625 C-0.91886719 2.53105469 -0.95882812 1.77695313 -1 1 C-0.67 0.67 -0.34 0.34 0 0 Z " fill="#3E3B46" transform="translate(178,142)"/>
<path d="M0 0 C0.66 0 1.32 0 2 0 C2.48828125 1.98567708 2.9765625 3.97135417 3.46484375 5.95703125 C3.91010705 7.65683202 4.44433985 9.33301954 5 11 C1.25 12.125 1.25 12.125 -1 11 C-1.0270043 9.54176788 -1.04639787 8.08339325 -1.0625 6.625 C-1.07410156 5.81289062 -1.08570313 5.00078125 -1.09765625 4.1640625 C-1 2 -1 2 0 0 Z " fill="#56AD9F" transform="translate(131,76)"/>
<path d="M0 0 C2 1 2 1 2.8515625 3.1796875 C3.10679688 4.06914063 3.36203125 4.95859375 3.625 5.875 C4.01558594 7.20144531 4.01558594 7.20144531 4.4140625 8.5546875 C5 11 5 11 5 14 C5.99 14.33 6.98 14.66 8 15 C9.1875 18.5625 9.1875 18.5625 10 22 C4.47853475 17.5828278 2.08203301 11.66250563 0 5 C-0.13671875 2.125 -0.13671875 2.125 0 0 Z " fill="#57A496" transform="translate(108,81)"/>
<path d="M0 0 C0.66 0.33 1.32 0.66 2 1 C2.625 3.0625 2.625 3.0625 3 5 C2.38125 5.061875 1.7625 5.12375 1.125 5.1875 C-1.2501999 5.80875315 -1.2501999 5.80875315 -2.0625 8.375 C-2.371875 9.24125 -2.68125 10.1075 -3 11 C-4.5 12.8125 -4.5 12.8125 -6 14 C-6.66 14 -7.32 14 -8 14 C-6.6744419 10.37723685 -5.05653045 7.36494652 -2.875 4.1875 C-2.33617187 3.39730469 -1.79734375 2.60710937 -1.2421875 1.79296875 C-0.83226562 1.20128906 -0.42234375 0.60960938 0 0 Z " fill="#292F3E" transform="translate(257,81)"/>
<path d="M0 0 C0.99 0.33 1.98 0.66 3 1 C3.72870472 3.31470912 4.39239518 5.6505947 5 8 C5.99 9.485 5.99 9.485 7 11 C4.75 11.25 4.75 11.25 2 11 C-0.3125 9 -0.3125 9 -2 7 C-1.34 6.67 -0.68 6.34 0 6 C0 4.02 0 2.04 0 0 Z " fill="#1F202E" transform="translate(215,149)"/>
<path d="M0 0 C0.66 0 1.32 0 2 0 C2 1.32 2 2.64 2 4 C1.01 4.495 1.01 4.495 0 5 C-0.33 5.66 -0.66 6.32 -1 7 C-1.33 6.67 -1.66 6.34 -2 6 C-2.33 10.95 -2.66 15.9 -3 21 C-4.65 20.67 -6.3 20.34 -8 20 C-7.34 19.34 -6.68 18.68 -6 18 C-6 18.66 -6 19.32 -6 20 C-5.34 20 -4.68 20 -4 20 C-4 14.39 -4 8.78 -4 3 C-2.68 2.67 -1.36 2.34 0 2 C0 1.34 0 0.68 0 0 Z " fill="#3D3C4C" transform="translate(198,140)"/>
<path d="M0 0 C0.33 0.66 0.66 1.32 1 2 C1.99 1.34 2.98 0.68 4 0 C6.6875 0.375 6.6875 0.375 9 1 C9 2.65 9 4.3 9 6 C7.02 5.34 5.04 4.68 3 4 C2.34 4.66 1.68 5.32 1 6 C1 6.66 1 7.32 1 8 C0.34 8 -0.32 8 -1 8 C-1.04241723 5.66705225 -1.04092937 3.33297433 -1 1 C-0.67 0.67 -0.34 0.34 0 0 Z M4 1 C5 3 5 3 5 3 Z " fill="#413246" transform="translate(203,136)"/>
<path d="M0 0 C0.66 0.33 1.32 0.66 2 1 C2.042721 2.66611905 2.04063832 4.33382885 2 6 C1 7 1 7 -1.04125977 7.11352539 C-1.91580811 7.10828857 -2.79035645 7.10305176 -3.69140625 7.09765625 C-4.63564453 7.09443359 -5.57988281 7.09121094 -6.55273438 7.08789062 C-7.54595703 7.07951172 -8.53917969 7.07113281 -9.5625 7.0625 C-10.55958984 7.05798828 -11.55667969 7.05347656 -12.58398438 7.04882812 C-15.05604849 7.03700007 -17.52799518 7.02051849 -20 7 C-20 6.67 -20 6.34 -20 6 C-18.85660156 5.95101562 -17.71320313 5.90203125 -16.53515625 5.8515625 C-15.04424527 5.77654811 -13.55336108 5.70099972 -12.0625 5.625 C-11.30775391 5.5940625 -10.55300781 5.563125 -9.77539062 5.53125 C-7.84492605 5.4273685 -5.92057919 5.22104386 -4 5 C-3.67 4.34 -3.34 3.68 -3 3 C-2.34 3 -1.68 3 -1 3 C-0.67 2.01 -0.34 1.02 0 0 Z " fill="#52B6A7" transform="translate(188,57)"/>
<path d="M0 0 C3.96 0 7.92 0 12 0 C11.67 1.32 11.34 2.64 11 4 C6.71 3.67 2.42 3.34 -2 3 C-1.34 2.67 -0.68 2.34 0 2 C0 1.34 0 0.68 0 0 Z " fill="#5BB1A6" transform="translate(446,28)"/>
<path d="M0 0 C2.4375 0.6875 2.4375 0.6875 5 2 C5.8125 4.625 5.8125 4.625 6 7 C5.34 7 4.68 7 4 7 C3.67 8.32 3.34 9.64 3 11 C2.814375 10.05125 2.62875 9.1025 2.4375 8.125 C1.26599195 4.61628301 1.26599195 4.61628301 -2.625 3.625 C-3.73875 3.41875 -4.8525 3.2125 -6 3 C-6 2.67 -6 2.34 -6 2 C-4.02 2 -2.04 2 0 2 C0 1.34 0 0.68 0 0 Z " fill="#32333E" transform="translate(162,143)"/>
<path d="M0 0 C0.66 0.66 1.32 1.32 2 2 C3.32 2 4.64 2 6 2 C6 3.32 6 4.64 6 6 C6.66 6.33 7.32 6.66 8 7 C8.33 7.66 8.66 8.32 9 9 C8.01 9.33 7.02 9.66 6 10 C2.69107017 7.82094865 0.27395742 5.82187225 -1 2 C-0.67 1.34 -0.34 0.68 0 0 Z " fill="#2A2E3C" transform="translate(287,49)"/>
<path d="M0 0 C2 2 2 2 2.1953125 5.4765625 C2.18201493 6.85950968 2.15816232 8.24238654 2.125 9.625 C2.11597656 10.33140625 2.10695313 11.0378125 2.09765625 11.765625 C2.07407603 13.51056098 2.03820461 15.25532295 2 17 C0.515625 15.87890625 0.515625 15.87890625 -1 14 C-1.328125 11.15234375 -1.328125 11.15234375 -1.25 7.9375 C-1.23453125 6.87402344 -1.2190625 5.81054688 -1.203125 4.71484375 C-1 2 -1 2 0 0 Z " fill="#202232" transform="translate(286,87)"/>
<path d="M0 0 C1.32 0 2.64 0 4 0 C4 5.94 4 11.88 4 18 C4.99 18.33 5.98 18.66 7 19 C5.68 19 4.36 19 3 19 C3 14.38 3 9.76 3 5 C1.68 4.34 0.36 3.68 -1 3 C-0.67 2.01 -0.34 1.02 0 0 Z " fill="#3B3749" transform="translate(115,142)"/>
<path d="M0 0 C0.33 1.65 0.66 3.3 1 5 C-1.97 4.67 -4.94 4.34 -8 4 C-8 3.01 -8 2.02 -8 1 C-5.29120665 -0.35439668 -2.99066732 -0.06501451 0 0 Z " fill="#28272E" transform="translate(145,142)"/>
<path d="M0 0 C-0.33 0.99 -0.66 1.98 -1 3 C-2.8125 3.66015625 -2.8125 3.66015625 -5 4.0625 C-7.14055297 4.42700873 -7.14055297 4.42700873 -9 5 C-9.33 5.66 -9.66 6.32 -10 7 C-10.33 6.01 -10.66 5.02 -11 4 C-7.65667474 -0.27945633 -5.29105716 -0.4070044 0 0 Z " fill="#312C3A" transform="translate(47,136)"/>
<path d="M0 0 C-4.07723734 1.95031692 -7.31692422 2.21581971 -11.8125 2.125 C-12.97394531 2.10695313 -14.13539063 2.08890625 -15.33203125 2.0703125 C-16.21246094 2.04710938 -17.09289062 2.02390625 -18 2 C-18 2.66 -18 3.32 -18 4 C-20.475 3.01 -20.475 3.01 -23 2 C-21 0 -21 0 -17.62890625 -0.16015625 C-16.27323533 -0.13753956 -14.91770669 -0.10457133 -13.5625 -0.0625 C-8.98734214 0.0543678 -4.12984565 -1.37661522 0 0 Z " fill="#4DB7A5" transform="translate(426,115)"/>
<path d="M0 0 C3.99824088 3.66505414 6.60168569 7.11112852 9 12 C8.67 12.66 8.34 13.32 8 14 C5 13 5 13 3.4375 10.375 C1.96704968 6.92263839 0.94257597 3.62529219 0 0 Z " fill="#3A3E4A" transform="translate(259,83)"/>
<path d="M0 0 C0.66 0.66 1.32 1.32 2 2 C1.625 4.125 1.625 4.125 1 6 C1.66 6.33 2.32 6.66 3 7 C2.67 7.33 2.34 7.66 2 8 C1.76518307 10.18292774 1.58636677 12.37203174 1.4375 14.5625 C1.31181641 16.35880859 1.31181641 16.35880859 1.18359375 18.19140625 C1.12300781 19.11824219 1.06242187 20.04507813 1 21 C0.67 21 0.34 21 0 21 C-1.79378744 14.04907366 -1.19107603 6.9975717 0 0 Z " fill="#222433" transform="translate(286,65)"/>
<path d="M0 0 C2.0625 0.4375 2.0625 0.4375 4 1 C3.34 1 2.68 1 2 1 C2 3.31 2 5.62 2 8 C2.66 8 3.32 8 4 8 C3.67 7.01 3.34 6.02 3 5 C4.32 4.67 5.64 4.34 7 4 C5.75 6.9375 5.75 6.9375 4 10 C1.890625 10.69140625 1.890625 10.69140625 0 11 C-0.19406478 9.35492782 -0.38007935 7.70890406 -0.5625 6.0625 C-0.66691406 5.14597656 -0.77132812 4.22945312 -0.87890625 3.28515625 C-0.91886719 2.53105469 -0.95882812 1.77695313 -1 1 C-0.67 0.67 -0.34 0.34 0 0 Z " fill="#3D3D4D" transform="translate(53,142)"/>
<path d="M0 0 C2.0625 0.4375 2.0625 0.4375 4 1 C3.38801624 4.43950364 2.07941153 6.51564485 -0.0625 9.25 C-0.61035156 9.95640625 -1.15820312 10.6628125 -1.72265625 11.390625 C-2.14417969 11.92171875 -2.56570313 12.4528125 -3 13 C-3.33 12.01 -3.66 11.02 -4 10 C-3.525625 9.38125 -3.05125 8.7625 -2.5625 8.125 C-0.65633311 5.53261303 -0.83033385 4.13882369 -1 1 C-0.67 0.67 -0.34 0.34 0 0 Z " fill="#53AC9C" transform="translate(282,28)"/>
<path d="M0 0 C1.65 1.32 3.3 2.64 5 4 C4.67 5.32 4.34 6.64 4 8 C2.125 7.6875 2.125 7.6875 0 7 C-0.66 6.01 -1.32 5.02 -2 4 C-1.34 2.68 -0.68 1.36 0 0 Z " fill="#3D3C42" transform="translate(47,136)"/>
<path d="M0 0 C2.46800047 1.15173355 4.04783565 2.04783565 6 4 C8.20250992 4.46006346 8.20250992 4.46006346 10.625 4.625 C11.44226563 4.69976562 12.25953125 4.77453125 13.1015625 4.8515625 C13.72804688 4.90054688 14.35453125 4.94953125 15 5 C15 5.33 15 5.66 15 6 C12.87562788 6.19448477 10.75046809 6.38038289 8.625 6.5625 C7.44164062 6.66691406 6.25828125 6.77132812 5.0390625 6.87890625 C2 7 2 7 0 6 C0 4.02 0 2.04 0 0 Z " fill="#3C4150" transform="translate(345,88)"/>
<path d="M0 0 C3 2 3 2 3.75 3.8125 C4.04654743 6.40729 3.63034051 8.47863795 3 11 C2.34 11 1.68 11 1 11 C1 10.34 1 9.68 1 9 C0.34 8.67 -0.32 8.34 -1 8 C-1.125 2.25 -1.125 2.25 0 0 Z " fill="#23222D" transform="translate(83,148)"/>
<path d="M0 0 C1.5027237 0.97498145 3.00211963 1.95509389 4.5 2.9375 C5.3353125 3.48277344 6.170625 4.02804688 7.03125 4.58984375 C8.00578125 5.28787109 8.00578125 5.28787109 9 6 C9 6.33 9 6.66 9 7 C2.58131488 7.3633218 2.58131488 7.3633218 0 5.75 C-1 4 -1 4 -0.5625 1.890625 C-0.376875 1.26671875 -0.19125 0.6428125 0 0 Z " fill="#303143" transform="translate(86,154)"/>
<path d="M0 0 C0.33 0.99 0.66 1.98 1 3 C-0.4375 5 -0.4375 5 -3 7 C-6.02824418 7.35442445 -8.96485939 7.23347235 -12 7 C-12 6.67 -12 6.34 -12 6 C-10.948125 5.7525 -9.89625 5.505 -8.8125 5.25 C-5.1866459 4.23299214 -2.80089228 2.54626571 0 0 Z " fill="#242937" transform="translate(309,52)"/>
<path d="M0 0 C1.65 0 3.3 0 5 0 C4.67 2.97 4.34 5.94 4 9 C3.01 9 2.02 9 1 9 C0.67 6.03 0.34 3.06 0 0 Z " fill="#2A2A33" transform="translate(65,152)"/>
<path d="M0 0 C0.99 0.33 1.98 0.66 3 1 C2.41196203 4.02419525 1.77321882 7.01758453 1 10 C0.01 10 -0.98 10 -2 10 C-1.85950482 8.52031676 -1.71245174 7.04125484 -1.5625 5.5625 C-1.48128906 4.73878906 -1.40007812 3.91507813 -1.31640625 3.06640625 C-1 1 -1 1 0 0 Z " fill="#252735" transform="translate(251,151)"/>
<path d="M0 0 C0.33 0 0.66 0 1 0 C1.24878997 2.43694274 1.47463404 4.87238389 1.6875 7.3125 C1.79674805 8.34793945 1.79674805 8.34793945 1.90820312 9.40429688 C2.32596606 14.49117493 2.32596606 14.49117493 0.71875 17 C-1.96813923 18.56328101 -4.0916739 17.71092416 -7 17 C-7 16.67 -7 16.34 -7 16 C-6.195625 15.87625 -5.39125 15.7525 -4.5625 15.625 C-3.716875 15.41875 -2.87125 15.2125 -2 15 C-0.58365167 12.16730334 -0.6536995 9.52533562 -0.4375 6.375 C-0.31181641 4.59222656 -0.31181641 4.59222656 -0.18359375 2.7734375 C-0.12300781 1.85820312 -0.06242188 0.94296875 0 0 Z " fill="#2F2E41" transform="translate(191,143)"/>
<path d="M0 0 C0 0.99 0 1.98 0 3 C-2.28453433 4.14226716 -4.62508799 5.06253473 -7 6 C-8 4 -8 4 -8 1 C-5.29120665 -0.35439668 -2.99066732 -0.06501451 0 0 Z " fill="#3D3B47" transform="translate(265,142)"/>
<path d="M0 0 C1.34386088 0.28797019 2.6757713 0.63215869 4 1 C5.66519519 1.34060811 7.33157466 1.67558396 9 2 C8.67 2.99 8.34 3.98 8 5 C6.02 5.33 4.04 5.66 2 6 C1.01 4.35 0.02 2.7 -1 1 C-0.67 0.67 -0.34 0.34 0 0 Z " fill="#28272F" transform="translate(135,155)"/>
<path d="M0 0 C0.33 0.99 0.66 1.98 1 3 C1.66 3 2.32 3 3 3 C2.125 9.75 2.125 9.75 1 12 C0.34 12 -0.32 12 -1 12 C-1.08159574 7.83861737 -0.98248524 4.0527516 0 0 Z " fill="#22232C" transform="translate(210,148)"/>
<path d="M0 0 C0.99 0.33 1.98 0.66 3 1 C4.33599181 4.00598158 5.14345053 6.09147996 4.625 9.375 C4.41875 9.91125 4.2125 10.4475 4 11 C1.6870518 8.6870518 1.50419025 7.52095125 0.875 4.375 C0.70742187 3.55773437 0.53984375 2.74046875 0.3671875 1.8984375 C0.24601563 1.27195312 0.12484375 0.64546875 0 0 Z " fill="#282C3C" transform="translate(243,103)"/>
<path d="M0 0 C4.0081803 3.67416528 6.52591615 7.14346504 9 12 C9 12.66 9 13.32 9 14 C8.34 14 7.68 14 7 14 C6.51080078 13.06027344 6.51080078 13.06027344 6.01171875 12.1015625 C5.57472656 11.28429688 5.13773438 10.46703125 4.6875 9.625 C4.25824219 8.81289063 3.82898438 8.00078125 3.38671875 7.1640625 C2.03221276 4.73165957 2.03221276 4.73165957 -1 3 C-0.67 2.01 -0.34 1.02 0 0 Z " fill="#529E92" transform="translate(181,43)"/>
<path d="M0 0 C1.01406317 3.04218951 1.66083005 5.81180248 2 9 C1.34 9.66 0.68 10.32 0 11 C-1.5625 9.8125 -1.5625 9.8125 -3 8 C-2.73897585 4.51967799 -1.96602468 2.94903702 0 0 Z " fill="#3D3E4A" transform="translate(68,143)"/>
<path d="M0 0 C1.41791408 0.45445964 2.83428046 0.91374944 4.25 1.375 C5.43335938 1.75785156 5.43335938 1.75785156 6.640625 2.1484375 C8.86627958 2.95173667 10.90931672 3.89711662 13 5 C9.78177396 6.07033136 7.96857567 5.95795392 4.8125 4.75 C3.77029297 4.37101562 3.77029297 4.37101562 2.70703125 3.984375 C1 3 1 3 0 0 Z " fill="#50A598" transform="translate(391,112)"/>
<path d="M0 0 C0.66 0.33 1.32 0.66 2 1 C2 2.98 2 4.96 2 7 C0.68 7.33 -0.64 7.66 -2 8 C-2.33 7.01 -2.66 6.02 -3 5 C-1.5625 2.3125 -1.5625 2.3125 0 0 Z " fill="#2E2D3D" transform="translate(238,153)"/>
<path d="M0 0 C0.99 0.33 1.98 0.66 3 1 C3.33 2.65 3.66 4.3 4 6 C3.34 6 2.68 6 2 6 C1.67 7.65 1.34 9.3 1 11 C0.67 11 0.34 11 0 11 C0 7.37 0 3.74 0 0 Z " fill="#04002C" transform="translate(174,147)"/>
<path d="M0 0 C4.84688192 0.78175515 9.3766367 2.39844278 14 4 C14 4.33 14 4.66 14 5 C8.67061191 4.66328485 4.37173367 4.384568 0 1 C0 0.67 0 0.34 0 0 Z " fill="#5BA395" transform="translate(128,112)"/>
<path d="M0 0 C0.33 0 0.66 0 1 0 C1.66 2.64 2.32 5.28 3 8 C1.35 8.33 -0.3 8.66 -2 9 C-2.125 5.625 -2.125 5.625 -2 2 C-1.34 1.34 -0.68 0.68 0 0 Z " fill="#5CADA2" transform="translate(74,41)"/>
<path d="M0 0 C0.66 0 1.32 0 2 0 C0.72278474 4.99275057 -1.17330957 7.57611908 -5 11 C-4.54961229 6.15833214 -3.40027839 3.50331713 0 0 Z " fill="#58A498" transform="translate(304,0)"/>
<path d="M0 0 C2.97 0 5.94 0 9 0 C9 1.33333333 9 2.66666667 9 4 C6.03 4 3.06 4 0 4 C0.66 3.34 1.32 2.68 2 2 C1.34 1.34 0.68 0.68 0 0 Z " fill="#39384A" transform="translate(219,157)"/>
<path d="M0 0 C2.14699969 3.44175522 2.09856795 5.7720292 1.625 9.75 C1.51414063 10.73484375 1.40328125 11.7196875 1.2890625 12.734375 C1.19367188 13.48203125 1.09828125 14.2296875 1 15 C-1.29188313 10.54773524 -2.47392138 7.67452221 -1.0625 2.6875 C-0.711875 1.800625 -0.36125 0.91375 0 0 Z " fill="#131224" transform="translate(200,145)"/>
<path d="M0 0 C-3 2 -3 2 -5 2 C-5.33 3.98 -5.66 5.96 -6 8 C-6.66 8 -7.32 8 -8 8 C-8 5.69 -8 3.38 -8 1 C-5.29120665 -0.35439668 -2.99066732 -0.06501451 0 0 Z " fill="#2D2D40" transform="translate(63,142)"/>
<path d="M0 0 C0.33 1.32 0.66 2.64 1 4 C-2.3 4 -5.6 4 -9 4 C-8.67 3.01 -8.34 2.02 -8 1 C-5.07175348 0.02391783 -3.04386724 -0.08226668 0 0 Z " fill="#50B9A8" transform="translate(164,113)"/>
<path d="M0 0 C0.66 0 1.32 0 2 0 C0.68139111 4.61513112 -1.21355437 8.09897612 -4 12 C-5 9 -5 9 -4.00390625 6.73828125 C-3.52824219 5.93777344 -3.05257812 5.13726562 -2.5625 4.3125 C-2.08941406 3.50425781 -1.61632812 2.69601563 -1.12890625 1.86328125 C-0.75636719 1.24839844 -0.38382813 0.63351563 0 0 Z " fill="#589F95" transform="translate(189,89)"/>
<path d="M0 0 C0.33 0 0.66 0 1 0 C1.76173392 4.3164922 2.16063604 7.74433453 1 12 C0.01 11.67 -0.98 11.34 -2 11 C-1.67 10.67 -1.34 10.34 -1 10 C-0.95386799 8.50070956 -0.96203748 6.99951954 -1 5.5 C-1.03796252 4.00048046 -1.04613201 2.49929044 -1 1 C-0.67 0.67 -0.34 0.34 0 0 Z " fill="#353543" transform="translate(80,149)"/>
<path d="M0 0 C0.433125 0.598125 0.86625 1.19625 1.3125 1.8125 C3.91397508 5.18478251 6.08677139 7.24579407 10 9 C7.3125 9.375 7.3125 9.375 4 9 C1.71933982 7.1858385 0.62415057 5.51005088 -1 3 C-0.67 2.01 -0.34 1.02 0 0 Z " fill="#60A398" transform="translate(74,49)"/>
<path d="M0 0 C0.33 0 0.66 0 1 0 C1 1.65 1 3.3 1 5 C-0.75 6.125 -0.75 6.125 -3 7 C-5.25 6.125 -5.25 6.125 -7 5 C-5 3 -5 3 -2.375 2.875 C-1.59125 2.91625 -0.8075 2.9575 0 3 C0 2.01 0 1.02 0 0 Z " fill="#272433" transform="translate(267,154)"/>
<path d="M0 0 C0.66 0 1.32 0 2 0 C2.625 2.375 2.625 2.375 3 5 C2.34 5.66 1.68 6.32 1 7 C-1.125 6.625 -1.125 6.625 -3 6 C-2.01 4.02 -1.02 2.04 0 0 Z " fill="#211F32" transform="translate(229,153)"/>
<path d="M0 0 C0.66 0 1.32 0 2 0 C0.63016497 3.16115776 0.0109362 3.9927092 -3 6 C-3.66 5.67 -4.32 5.34 -5 5 C-5 3.68 -5 2.36 -5 1 C-2.525 1.495 -2.525 1.495 0 2 C0 1.34 0 0.68 0 0 Z " fill="#292630" transform="translate(181,152)"/>
<path d="M0 0 C0.33 0.66 0.66 1.32 1 2 C1.66 2 2.32 2 3 2 C3.33 4.31 3.66 6.62 4 9 C2.68 8.34 1.36 7.68 0 7 C0 4.69 0 2.38 0 0 Z " fill="#121230" transform="translate(102,148)"/>
<path d="M0 0 C1.98 0.495 1.98 0.495 4 1 C3.67 2.98 3.34 4.96 3 7 C1.68 6.34 0.36 5.68 -1 5 C-0.67 3.35 -0.34 1.7 0 0 Z " fill="#2F2E33" transform="translate(171,136)"/>
<path d="M0 0 C3.17344304 0.91862825 4.64826723 1.38028036 6.3125 4.3125 C7.00035836 7.00140087 7.15782426 9.23807537 7 12 C5.31843245 9.47764868 3.83531994 6.96413358 2.375 4.3125 C1.92898438 3.50425781 1.48296875 2.69601563 1.0234375 1.86328125 C0.68570312 1.24839844 0.34796875 0.63351563 0 0 Z " fill="#5A9A92" transform="translate(429,56)"/>
<path d="M0 0 C0.33 0.66 0.66 1.32 1 2 C0.01 2.66 -0.98 3.32 -2 4 C-2.72965366 6.56282742 -2.72965366 6.56282742 -3 9 C-3.99 8.67 -4.98 8.34 -6 8 C-6 6.35 -6 4.7 -6 3 C-4.02 2.01 -2.04 1.02 0 0 Z " fill="#52B9A8" transform="translate(399,54)"/>
<path d="M0 0 C0 3.34238213 -0.48151073 5.03533048 -2 8 C-4.625 10.3125 -4.625 10.3125 -7 12 C-6.38801624 8.56049636 -5.07941153 6.48435515 -2.9375 3.75 C-2.38964844 3.04359375 -1.84179688 2.3371875 -1.27734375 1.609375 C-0.85582031 1.07828125 -0.43429687 0.5471875 0 0 Z " fill="#59BDAC" transform="translate(264,15)"/>
<path d="M0 0 C0.33 0.66 0.66 1.32 1 2 C1.99 1.67 2.98 1.34 4 1 C5.02104551 1.97850195 6.0206121 2.97980427 7 4 C7 4.33 7 4.66 7 5 C4.36 5 1.72 5 -1 5 C-0.67 3.35 -0.34 1.7 0 0 Z " fill="#3D3C4E" transform="translate(156,156)"/>
<path d="M0 0 C0.66 0.33 1.32 0.66 2 1 C1.25 3.4375 1.25 3.4375 0 6 C-2.125 6.8125 -2.125 6.8125 -4 7 C-4 4 -4 4 -2 1.8125 C-1.34 1.214375 -0.68 0.61625 0 0 Z " fill="#1A1B2B" transform="translate(50,153)"/>
<path d="M0 0 C0 0.99 0 1.98 0 3 C-2.31 3 -4.62 3 -7 3 C-7 2.01 -7 1.02 -7 0 C-4.3333581 -1.33332095 -2.83319697 -0.67102033 0 0 Z " fill="#212129" transform="translate(162,143)"/>
<path d="M0 0 C0.66 0.33 1.32 0.66 2 1 C0.36587557 2.70840281 -0.86906094 3.93453047 -3 5 C-4.13350534 7.01669827 -4.13350534 7.01669827 -5 9 C-5 6.69 -5 4.38 -5 2 C-2.625 0.9375 -2.625 0.9375 0 0 Z " fill="#323141" transform="translate(219,146)"/>
<path d="M0 0 C0.99 0.33 1.98 0.66 3 1 C2.34 2.98 1.68 4.96 1 7 C-1 6 -1 6 -2 4 C-4.01669827 2.86649466 -4.01669827 2.86649466 -6 2 C-4.02 2 -2.04 2 0 2 C0 1.34 0 0.68 0 0 Z " fill="#41404C" transform="translate(77,143)"/>
<path d="M0 0 C1.32 0 2.64 0 4 0 C3.67 1.98 3.34 3.96 3 6 C2.01 6.33 1.02 6.66 0 7 C0 4.69 0 2.38 0 0 Z " fill="#302E39" transform="translate(136,145)"/>
<path d="M0 0 C0.66 0.33 1.32 0.66 2 1 C1.67 2.98 1.34 4.96 1 7 C0.01 7 -0.98 7 -2 7 C-2.125 4.625 -2.125 4.625 -2 2 C-1.34 1.34 -0.68 0.68 0 0 Z " fill="#302E40" transform="translate(100,144)"/>
<path d="M0 0 C1.32 0.33 2.64 0.66 4 1 C3.67 2.32 3.34 3.64 3 5 C0.36 4.34 -2.28 3.68 -5 3 C-5 2.67 -5 2.34 -5 2 C-3.35 2 -1.7 2 0 2 C0 1.34 0 0.68 0 0 Z " fill="#33333E" transform="translate(226,143)"/>
<path d="M0 0 C0.99 0 1.98 0 3 0 C3.66 1.65 4.32 3.3 5 5 C3.35 5.33 1.7 5.66 0 6 C0.33 5.01 0.66 4.02 1 3 C0.34 3 -0.32 3 -1 3 C-0.67 2.01 -0.34 1.02 0 0 Z " fill="#242027" transform="translate(111,142)"/>
<path d="M0 0 C3.3 0.33 6.6 0.66 10 1 C10 1.33 10 1.66 10 2 C7.36 2 4.72 2 2 2 C1.67 2.66 1.34 3.32 1 4 C-0.32 3.34 -1.64 2.68 -3 2 C-2.01 2 -1.02 2 0 2 C0 1.34 0 0.68 0 0 Z " fill="#53BBA8" transform="translate(142,115)"/>
<path d="M0 0 C1.98362069 2.91708924 1.9876191 4.12380904 1.625 7.75 C1.41875 8.8225 1.2125 9.895 1 11 C-1.78637633 6.8204355 -0.79562512 4.85331323 0 0 Z " fill="#3E4052" transform="translate(286,40)"/>
<path d="M0 0 C1.98 0 3.96 0 6 0 C6.33 0.99 6.66 1.98 7 3 C5.1875 3.625 5.1875 3.625 3 4 C2.01 3.34 1.02 2.68 0 2 C0 1.34 0 0.68 0 0 Z " fill="#1F202E" transform="translate(92,157)"/>
<path d="M0 0 C0.66 0.33 1.32 0.66 2 1 C2.625 3.5625 2.625 3.5625 3 6 C2.01 6.495 2.01 6.495 1 7 C0.34 7.99 -0.32 8.98 -1 10 C-1.08004482 6.4780279 -1.04005702 3.38018531 0 0 Z " fill="#383B47" transform="translate(250,145)"/>
<path d="M0 0 C0.99 0 1.98 0 3 0 C2.67 2.64 2.34 5.28 2 8 C1.67 6.68 1.34 5.36 1 4 C0.34 4 -0.32 4 -1 4 C-0.67 2.68 -0.34 1.36 0 0 Z " fill="#232027" transform="translate(199,136)"/>
<path d="M0 0 C0.33 0.66 0.66 1.32 1 2 C1.99 1.67 2.98 1.34 4 1 C4 1.66 4 2.32 4 3 C3.34 3 2.68 3 2 3 C1.67 4.65 1.34 6.3 1 8 C0.34 8 -0.32 8 -1 8 C-1.04241723 5.66705225 -1.04092937 3.33297433 -1 1 C-0.67 0.67 -0.34 0.34 0 0 Z " fill="#524857" transform="translate(203,136)"/>
<path d="M0 0 C0.66 0.33 1.32 0.66 2 1 C1.67 1.66 1.34 2.32 1 3 C1.66 3.33 2.32 3.66 3 4 C2.67 4.66 2.34 5.32 2 6 C1.01 6 0.02 6 -1 6 C-1.625 4.125 -1.625 4.125 -2 2 C-1.34 1.34 -0.68 0.68 0 0 Z " fill="#292536" transform="translate(257,145)"/>
<path d="M0 0 C0.99 0.33 1.98 0.66 3 1 C2.67 2.98 2.34 4.96 2 7 C0.68 6.01 -0.64 5.02 -2 4 C-1.34 2.68 -0.68 1.36 0 0 Z " fill="#2E2C3C" transform="translate(236,142)"/>
<path d="M0 0 C1.32 0.33 2.64 0.66 4 1 C2.6875 3 2.6875 3 1 5 C0.01 5 -0.98 5 -2 5 C-1.34 3.35 -0.68 1.7 0 0 Z " fill="#2D3549" transform="translate(246,97)"/>
<path d="M0 0 C2.2477975 2.05233685 3.0022242 3.00667261 4 6 C3.01 6.33 2.02 6.66 1 7 C-0.0625 4.625 -0.0625 4.625 -1 2 C-0.67 1.34 -0.34 0.68 0 0 Z " fill="#22212D" transform="translate(153,154)"/>
<path d="M0 0 C0.33 0 0.66 0 1 0 C1.125 6.75 1.125 6.75 0 9 C-0.66 9 -1.32 9 -2 9 C-1.51421457 5.87709365 -1.0013988 3.00419641 0 0 Z " fill="#4A474F" transform="translate(181,145)"/>
<path d="M0 0 C2.0625 0.4375 2.0625 0.4375 4 1 C3.34 1 2.68 1 2 1 C2 3.31 2 5.62 2 8 C1.34 7.67 0.68 7.34 0 7 C-0.6875 4 -0.6875 4 -1 1 C-0.67 0.67 -0.34 0.34 0 0 Z " fill="#414958" transform="translate(53,142)"/>
<path d="M0 0 C0.33 0.66 0.66 1.32 1 2 C-1.48387097 8.74193548 -1.48387097 8.74193548 -4 10 C-3.29445932 6.33118845 -1.72264494 3.29549466 0 0 Z " fill="#59AAA0" transform="translate(252,75)"/>
<path d="M0 0 C1 4 1 4 1 4 Z " fill="#1C1C1C" transform="translate(234,153)"/>
<path d="" fill="#808080" transform="translate(0,0)"/>
<path d="" fill="#000080" transform="translate(0,0)"/>
<path d="" fill="#000000" transform="translate(0,0)"/>
<path d="" fill="#000000" transform="translate(0,0)"/>
<path d="" fill="#000000" transform="translate(0,0)"/>
<path d="" fill="#333333" transform="translate(0,0)"/>
<path d="" fill="#333366" transform="translate(0,0)"/>
<path d="" fill="#808080" transform="translate(0,0)"/>
</svg>
